<svg width="585" height="515" viewBox="0 0 585 515" fill="none" xmlns="http://www.w3.org/2000/svg">
<path d="M48.4193 252.498C48.1737 268.498 60.7445 281.656 76.4824 281.894C92.2203 282.126 105.176 269.346 105.413 253.348C105.65 237.349 93.0878 224.189 77.3498 223.954C61.6119 223.719 48.6566 236.5 48.4193 252.498V252.498ZM319.475 513.208L385.373 396.854L400.358 420.854C449.527 370.708 449.282 308.796 449.282 308.796L262.964 290.621L260.787 435.839L204.423 434.998L206.101 289.772L145.114 281.982C134.024 310.861 106.469 331.114 74.51 330.637C33.2789 330.021 0.370785 295.137 1.00914 252.722C1.63931 210.306 35.5785 176.421 76.8097 177.037C107.696 177.498 133.918 197.192 144.86 224.878L208.114 220.507L210.283 75.3888L266.156 76.8323L264.355 221.347L448.463 207.582C449.969 144.201 403.909 92.9117 403.909 92.9117L390.529 121.365L326.726 1.46386C326.726 1.46386 420.548 -10.6848 479.53 89.3676C538.516 189.418 546.045 238.202 584 260.766C584 260.766 535.775 299.505 514.378 358.739C492.976 417.968 424.983 524.209 319.475 513.208V513.208Z" stroke="#272C3E" stroke-width="0.6" stroke-miterlimit="10"/>
<path d="M390.534 121.365L394.373 64.5229L427.957 39.1293L399.561 102.159" stroke="#272C3E" stroke-width="0.6" stroke-miterlimit="10"/>
<path d="M394.364 64.5186L326.722 1.46237" stroke="#272C3E" stroke-width="0.6" stroke-miterlimit="10"/>
<path d="M385.377 396.854L395.845 454.722L429.531 471.511L391.636 406.874" stroke="#272C3E" stroke-width="0.6" stroke-miterlimit="10"/>
<path d="M77.3494 305.708C106.453 306.143 130.407 282.929 130.841 253.859C131.274 224.791 108.035 200.873 78.9238 200.439C49.8205 200.004 25.8663 223.217 25.4325 252.288C24.9987 281.358 48.2461 305.277 77.3494 305.708V305.708Z" stroke="#272C3E" stroke-width="0.6" stroke-miterlimit="10"/>
<path d="M528.831 260.808L501.815 288.242L460.806 259.79L501.686 230.289L528.831 260.808Z" stroke="#272C3E" stroke-width="0.6" stroke-miterlimit="10"/>
<path d="M501.813 288.242C501.813 288.242 485.791 390.153 413.169 443.611" stroke="#272C3E" stroke-width="0.6" stroke-miterlimit="10"/>
<path d="M501.687 230.291C501.687 230.291 484.349 120.036 414.465 69.0708" stroke="#272C3E" stroke-width="0.6" stroke-miterlimit="10"/>
<path d="M221.315 256.214L235.402 239.456L248.015 256.611L234.917 272.065L221.315 256.214Z" stroke="#272C3E" stroke-width="0.6" stroke-miterlimit="10"/>
<path d="M266.156 76.8316L237.578 102.01L210.283 75.3873" stroke="#272C3E" stroke-width="0.6" stroke-miterlimit="10"/>
<path d="M204.429 434.998L233.204 411.653L260.787 435.839" stroke="#272C3E" stroke-width="0.6" stroke-miterlimit="10"/>
<path d="M237.578 102.01L235.4 239.456" stroke="#272C3E" stroke-width="0.6" stroke-miterlimit="10"/>
<path d="M234.917 272.068L233.201 411.653" stroke="#272C3E" stroke-width="0.6" stroke-miterlimit="10"/>
<path d="M149.947 254.144L221.317 256.215" stroke="#272C3E" stroke-width="0.6" stroke-miterlimit="10"/>
<path d="M248.018 256.614L460.81 259.791" stroke="#272C3E" stroke-width="0.6" stroke-miterlimit="10"/>
<path d="M583.996 260.763L528.829 260.806" stroke="#272C3E" stroke-width="0.6" stroke-miterlimit="10"/>
<path d="M144.858 224.878C144.858 224.878 156.877 248.913 145.113 281.982" stroke="#272C3E" stroke-width="0.6" stroke-miterlimit="10"/>
<path d="M448.456 207.58L479.431 246.346" stroke="#272C3E" stroke-width="0.6" stroke-miterlimit="10"/>
<path d="M449.285 308.796L476.804 270.888" stroke="#272C3E" stroke-width="0.6" stroke-miterlimit="10"/>
<path d="M264.353 221.346L241.544 247.809" stroke="#272C3E" stroke-width="0.6" stroke-miterlimit="10"/>
<path d="M262.963 290.621L241.296 264.542" stroke="#272C3E" stroke-width="0.6" stroke-miterlimit="10"/>
<path d="M208.111 220.506L228.543 247.614" stroke="#272C3E" stroke-width="0.6" stroke-miterlimit="10"/>
<path d="M206.098 289.772L228.289 264.348" stroke="#272C3E" stroke-width="0.6" stroke-miterlimit="10"/>
<path d="M463.075 287.665L251.633 276.989L249.404 425.86" stroke="#272C3E" stroke-width="0.6" stroke-miterlimit="10"/>
<path d="M487.537 278.337C487.537 278.337 457.696 399.473 404.33 428.534" stroke="#272C3E" stroke-width="0.6" stroke-miterlimit="10"/>
<path d="M148.367 270.498L217.737 274.305" stroke="#272C3E" stroke-width="0.6" stroke-miterlimit="10"/>
<path d="M149.949 254.147L130.84 253.861" stroke="#272C3E" stroke-width="0.6" stroke-miterlimit="10"/>
<path d="M25.4307 252.287L1.00482 252.723" stroke="#272C3E" stroke-width="0.6" stroke-miterlimit="10"/>
<path d="M78.9258 200.437L78.5714 223.887" stroke="#272C3E" stroke-width="0.6" stroke-miterlimit="10"/>
<path d="M76.4785 281.893L76.1235 305.674" stroke="#272C3E" stroke-width="0.6" stroke-miterlimit="10"/>
<path d="M552.705 261.163C552.705 261.163 517.833 296.409 509.802 328.6C501.765 360.792 464.832 433.566 424.029 462.137" stroke="#272C3E" stroke-width="0.6" stroke-miterlimit="10"/>
<path d="M413.527 466.162C413.527 466.162 378.251 502.131 323.11 511.387L395.846 454.722" stroke="#272C3E" stroke-width="0.6" stroke-miterlimit="10"/>
<path d="M407.329 84.9132C407.329 84.9132 464.231 119.716 489.301 239.226" stroke="#272C3E" stroke-width="0.6" stroke-miterlimit="10"/>
<path d="M259.684 226.827L281.844 256.952" stroke="#272C3E" stroke-width="0.6" stroke-miterlimit="10"/>
<path d="M263.973 221.882L289.341 256.804" stroke="#272C3E" stroke-width="0.6" stroke-miterlimit="10"/>
<path d="M271.123 220.628L297.025 256.69" stroke="#272C3E" stroke-width="0.6" stroke-miterlimit="10"/>
<path d="M278.679 219.839L304.812 256.719" stroke="#272C3E" stroke-width="0.6" stroke-miterlimit="10"/>
<path d="M285.995 219.29L312.719 256.724" stroke="#272C3E" stroke-width="0.6" stroke-miterlimit="10"/>
<path d="M293.599 218.989L320.551 257.227" stroke="#272C3E" stroke-width="0.6" stroke-miterlimit="10"/>
<path d="M301.094 218.336L328.485 257.648" stroke="#272C3E" stroke-width="0.6" stroke-miterlimit="10"/>
<path d="M308.189 217.016L336.198 257.762" stroke="#272C3E" stroke-width="0.6" stroke-miterlimit="10"/>
<path d="M246.508 242.202L257.093 256.478" stroke="#272C3E" stroke-width="0.6" stroke-miterlimit="10"/>
<path d="M250.61 236.914L265.045 256.597" stroke="#272C3E" stroke-width="0.6" stroke-miterlimit="10"/>
<path d="M255.533 232.491L273.265 256.724" stroke="#272C3E" stroke-width="0.6" stroke-miterlimit="10"/>
<path d="M315.497 217.177L344.213 257.397" stroke="#272C3E" stroke-width="0.6" stroke-miterlimit="10"/>
<path d="M323.117 216.901L352.009 257.896" stroke="#272C3E" stroke-width="0.6" stroke-miterlimit="10"/>
<path d="M330.887 217.043L360.604 257.438" stroke="#272C3E" stroke-width="0.6" stroke-miterlimit="10"/>
<path d="M337.616 215.458L368.062 257.381" stroke="#272C3E" stroke-width="0.6" stroke-miterlimit="10"/>
<path d="M345.221 214.882L376.097 257.866" stroke="#272C3E" stroke-width="0.6" stroke-miterlimit="10"/>
<path d="M353.171 214.693L383.853 257.992" stroke="#272C3E" stroke-width="0.6" stroke-miterlimit="10"/>
<path d="M360.183 213.692L392.021 258.293" stroke="#272C3E" stroke-width="0.6" stroke-miterlimit="10"/>
<path d="M368.049 213.812L399.476 258.405" stroke="#272C3E" stroke-width="0.6" stroke-miterlimit="10"/>
<path d="M375.386 212.985L407.332 258.824" stroke="#272C3E" stroke-width="0.6" stroke-miterlimit="10"/>
<path d="M382.818 212.219L414.932 258.936" stroke="#272C3E" stroke-width="0.6" stroke-miterlimit="10"/>
<path d="M390 212L423.517 258.965" stroke="#272C3E" stroke-width="0.6" stroke-miterlimit="10"/>
<path d="M397.2 211.208L430.938 259.076" stroke="#272C3E" stroke-width="0.6" stroke-miterlimit="10"/>
<path d="M404.592 210.827L441 260" stroke="#272C3E" stroke-width="0.6" stroke-miterlimit="10"/>
<path d="M412 210L446.615 259.41" stroke="#272C3E" stroke-width="0.6" stroke-miterlimit="10"/>
<path d="M419 210L454.15 259.424" stroke="#272C3E" stroke-width="0.6" stroke-miterlimit="10"/>
<path d="M427.228 209.354L461.454 259.146" stroke="#272C3E" stroke-width="0.6" stroke-miterlimit="10"/>
<path d="M434.068 208.672L467 255" stroke="#272C3E" stroke-width="0.6" stroke-miterlimit="10"/>
<path d="M441.61 208.341L472 252" stroke="#272C3E" stroke-width="0.6" stroke-miterlimit="10"/>
<path d="M447 208L477 248" stroke="#272C3E" stroke-width="0.6" stroke-miterlimit="10"/>
<path d="M224 241L235 235" stroke="#272C3E" stroke-width="0.6" stroke-miterlimit="10"/>
<path d="M220.652 236.728L236 227" stroke="#272C3E" stroke-width="0.6" stroke-miterlimit="10"/>
<path d="M217 232L236 220" stroke="#272C3E" stroke-width="0.6" stroke-miterlimit="10"/>
<path d="M213.003 227.099L236 213" stroke="#272C3E" stroke-width="0.6" stroke-miterlimit="10"/>
<path d="M208.689 221.541L236 205" stroke="#272C3E" stroke-width="0.6" stroke-miterlimit="10"/>
<path d="M207.942 214.751L236 198" stroke="#272C3E" stroke-width="0.6" stroke-miterlimit="10"/>
<path d="M208.22 207.265L236 190" stroke="#272C3E" stroke-width="0.6" stroke-miterlimit="10"/>
<path d="M208 201L236.593 182.536" stroke="#272C3E" stroke-width="0.6" stroke-miterlimit="10"/>
<path d="M209 193L236 175" stroke="#272C3E" stroke-width="0.6" stroke-miterlimit="10"/>
<path d="M208.356 185.479L237 167.354" stroke="#272C3E" stroke-width="0.6" stroke-miterlimit="10"/>
<path d="M208.259 177.86L236.823 160" stroke="#272C3E" stroke-width="0.6" stroke-miterlimit="10"/>
<path d="M208.973 169.07L237 152" stroke="#272C3E" stroke-width="0.6" stroke-miterlimit="10"/>
<path d="M209.256 161.488L237 144" stroke="#272C3E" stroke-width="0.6" stroke-miterlimit="10"/>
<path d="M209.028 154.182L237 137" stroke="#272C3E" stroke-width="0.6" stroke-miterlimit="10"/>
<path d="M209.181 146.849L237 130" stroke="#272C3E" stroke-width="0.6" stroke-miterlimit="10"/>
<path d="M209.059 139.682L237 123" stroke="#272C3E" stroke-width="0.6" stroke-miterlimit="10"/>
<path d="M209 133L237 115" stroke="#272C3E" stroke-width="0.6" stroke-miterlimit="10"/>
<path d="M209.761 124.312L237 108" stroke="#272C3E" stroke-width="0.6" stroke-miterlimit="10"/>
<path d="M209.791 117.285L236 101.001" stroke="#272C3E" stroke-width="0.6" stroke-miterlimit="10"/>
<path d="M210 109L232 96.0004" stroke="#272C3E" stroke-width="0.6" stroke-miterlimit="10"/>
<path d="M210.141 102.215L227 91.9996" stroke="#272C3E" stroke-width="0.6" stroke-miterlimit="10"/>
<path d="M210.448 93.624L222.184 86.6183" stroke="#272C3E" stroke-width="0.6" stroke-miterlimit="10"/>
<path d="M209.616 86.5879L217 82.0001" stroke="#272C3E" stroke-width="0.6" stroke-miterlimit="10"/>
<path d="M237.634 269.173L253.184 279.413" stroke="#272C3E" stroke-width="0.6" stroke-miterlimit="10"/>
<path d="M235.166 275.115L252.78 286.805" stroke="#272C3E" stroke-width="0.6" stroke-miterlimit="10"/>
<path d="M235.063 282.605L252.962 294.328" stroke="#272C3E" stroke-width="0.6" stroke-miterlimit="10"/>
<path d="M234.945 290.224L252.664 301.698" stroke="#272C3E" stroke-width="0.6" stroke-miterlimit="10"/>
<path d="M235.145 298.095L252.321 309.062" stroke="#272C3E" stroke-width="0.6" stroke-miterlimit="10"/>
<path d="M235.035 305.304L252.436 316.854" stroke="#272C3E" stroke-width="0.6" stroke-miterlimit="10"/>
<path d="M234.918 312.964L252.32 324.688" stroke="#272C3E" stroke-width="0.6" stroke-miterlimit="10"/>
<path d="M234.973 320.578L251.977 332.212" stroke="#272C3E" stroke-width="0.6" stroke-miterlimit="10"/>
<path d="M234.697 328.001L252.278 339.877" stroke="#272C3E" stroke-width="0.6" stroke-miterlimit="10"/>
<path d="M234.829 335.837L251.882 347.223" stroke="#272C3E" stroke-width="0.6" stroke-miterlimit="10"/>
<path d="M234.567 343.453L250.942 354.234" stroke="#272C3E" stroke-width="0.6" stroke-miterlimit="10"/>
<path d="M235.152 351.443L251.815 362.499" stroke="#272C3E" stroke-width="0.6" stroke-miterlimit="10"/>
<path d="M234.242 358.342L250.717 369.132" stroke="#272C3E" stroke-width="0.6" stroke-miterlimit="10"/>
<path d="M234.291 366.017L251.305 377.03" stroke="#272C3E" stroke-width="0.6" stroke-miterlimit="10"/>
<path d="M234.305 373.708L251.318 384.569" stroke="#272C3E" stroke-width="0.6" stroke-miterlimit="10"/>
<path d="M233.904 380.893L251.363 392.48" stroke="#272C3E" stroke-width="0.6" stroke-miterlimit="10"/>
<path d="M233.96 388.417L251.384 399.831" stroke="#272C3E" stroke-width="0.6" stroke-miterlimit="10"/>
<path d="M233.925 395.987L249.534 406.342" stroke="#272C3E" stroke-width="0.6" stroke-miterlimit="10"/>
<path d="M233.732 403.349L250.1 414.071" stroke="#272C3E" stroke-width="0.6" stroke-miterlimit="10"/>
<path d="M233.67 410.449L249.316 421.044" stroke="#272C3E" stroke-width="0.6" stroke-miterlimit="10"/>
<path d="M427.103 386.554L439.165 394.391" stroke="#272C3E" stroke-width="0.6" stroke-miterlimit="10"/>
<path d="M429.786 381.724L442.229 389.742" stroke="#272C3E" stroke-width="0.6" stroke-miterlimit="10"/>
<path d="M432.213 376.376L445.108 384.61" stroke="#272C3E" stroke-width="0.6" stroke-miterlimit="10"/>
<path d="M434.509 370.534L448.702 379.312" stroke="#272C3E" stroke-width="0.6" stroke-miterlimit="10"/>
<path d="M437.294 364.907L452.038 373.099" stroke="#272C3E" stroke-width="0.6" stroke-miterlimit="10"/>
<path d="M439.535 358.764L455.45 367.459" stroke="#272C3E" stroke-width="0.6" stroke-miterlimit="10"/>
<path d="M441.838 352.887L457.991 361.564" stroke="#272C3E" stroke-width="0.6" stroke-miterlimit="10"/>
<path d="M443.506 346.593L460.471 355.845" stroke="#272C3E" stroke-width="0.6" stroke-miterlimit="10"/>
<path d="M446.457 340.809L462.936 349.909" stroke="#272C3E" stroke-width="0.6" stroke-miterlimit="10"/>
<path d="M446.926 333.55L466.036 344.26" stroke="#272C3E" stroke-width="0.6" stroke-miterlimit="10"/>
<path d="M447.926 327.043L468.124 338.264" stroke="#272C3E" stroke-width="0.6" stroke-miterlimit="10"/>
<path d="M449.125 320.45L470.556 332.672" stroke="#272C3E" stroke-width="0.6" stroke-miterlimit="10"/>
<path d="M449.236 313.239L472.781 326.529" stroke="#272C3E" stroke-width="0.6" stroke-miterlimit="10"/>
<path d="M451.104 306.774L475.239 320.429" stroke="#272C3E" stroke-width="0.6" stroke-miterlimit="10"/>
<path d="M454.6 301.648L476.913 314.297" stroke="#272C3E" stroke-width="0.6" stroke-miterlimit="10"/>
<path d="M458.771 296.826L478.539 307.971" stroke="#272C3E" stroke-width="0.6" stroke-miterlimit="10"/>
<path d="M462.253 291.529L482.033 302.521" stroke="#272C3E" stroke-width="0.6" stroke-miterlimit="10"/>
<path d="M466.018 286.431L483.875 296.498" stroke="#272C3E" stroke-width="0.6" stroke-miterlimit="10"/>
<path d="M469.796 281.158L485.284 290" stroke="#272C3E" stroke-width="0.6" stroke-miterlimit="10"/>
<path d="M474.878 276.553L486.705 283.405" stroke="#272C3E" stroke-width="0.6" stroke-miterlimit="10"/>
<path d="M414.465 406.545L424.364 413.194" stroke="#272C3E" stroke-width="0.6" stroke-miterlimit="10"/>
<path d="M417.41 401.495L429.854 409.514" stroke="#272C3E" stroke-width="0.6" stroke-miterlimit="10"/>
<path d="M419.83 396.147L432.729 404.381" stroke="#272C3E" stroke-width="0.6" stroke-miterlimit="10"/>
<path d="M423.842 391.368L436.031 399.345" stroke="#272C3E" stroke-width="0.6" stroke-miterlimit="10"/>
<path d="M406.233 415.428L416.129 422.078" stroke="#272C3E" stroke-width="0.6" stroke-miterlimit="10"/>
<path d="M409.178 410.379L420.024 417.371" stroke="#272C3E" stroke-width="0.6" stroke-miterlimit="10"/>
<path d="M401.731 419.231L410.279 424.98" stroke="#272C3E" stroke-width="0.6" stroke-miterlimit="10"/>
<path d="M481 92L462 123" stroke="#272C3E" stroke-width="0.6" stroke-miterlimit="10"/>
<path d="M485 98L465 129" stroke="#272C3E" stroke-width="0.6" stroke-miterlimit="10"/>
<path d="M488 104L469 135" stroke="#272C3E" stroke-width="0.6" stroke-miterlimit="10"/>
<path d="M492 110L472 142" stroke="#272C3E" stroke-width="0.6" stroke-miterlimit="10"/>
<path d="M496 117L475.781 147.461" stroke="#272C3E" stroke-width="0.6" stroke-miterlimit="10"/>
<path d="M499 123L479 155" stroke="#272C3E" stroke-width="0.6" stroke-miterlimit="10"/>
<path d="M503 130L482.158 162.529" stroke="#272C3E" stroke-width="0.6" stroke-miterlimit="10"/>
<path d="M506 136L484.886 170.787" stroke="#272C3E" stroke-width="0.6" stroke-miterlimit="10"/>
<path d="M509 142L487.602 177.55" stroke="#272C3E" stroke-width="0.6" stroke-miterlimit="10"/>
<path d="M512 149L489.844 185.306" stroke="#272C3E" stroke-width="0.6" stroke-miterlimit="10"/>
<path d="M516.27 155.147L493.011 192.801" stroke="#272C3E" stroke-width="0.6" stroke-miterlimit="10"/>
<path d="M519 163L494.781 201.654" stroke="#272C3E" stroke-width="0.6" stroke-miterlimit="10"/>
<path d="M523 170L498 210" stroke="#272C3E" stroke-width="0.6" stroke-miterlimit="10"/>
<path d="M526 176L499.059 217.182" stroke="#272C3E" stroke-width="0.6" stroke-miterlimit="10"/>
<path d="M529 183L501.177 226.649" stroke="#272C3E" stroke-width="0.6" stroke-miterlimit="10"/>
<path d="M533 190L504.695 233.786" stroke="#272C3E" stroke-width="0.6" stroke-miterlimit="10"/>
<path d="M536 196L509.132 238.787" stroke="#272C3E" stroke-width="0.6" stroke-miterlimit="10"/>
<path d="M539 203L513.194 243.969" stroke="#272C3E" stroke-width="0.6" stroke-miterlimit="10"/>
<path d="M542 209L517.467 248.47" stroke="#272C3E" stroke-width="0.6" stroke-miterlimit="10"/>
<path d="M546 216L522.231 252.942" stroke="#272C3E" stroke-width="0.6" stroke-miterlimit="10"/>
<path d="M550 223L526.598 257.707" stroke="#272C3E" stroke-width="0.6" stroke-miterlimit="10"/>
<path d="M553 228L531.721 260.904" stroke="#272C3E" stroke-width="0.6" stroke-miterlimit="10"/>
<path d="M557 234L540.613 260.812" stroke="#272C3E" stroke-width="0.6" stroke-miterlimit="10"/>
<path d="M457 57L437.37 89.0732" stroke="#272C3E" stroke-width="0.6" stroke-miterlimit="10"/>
<path d="M461 62.0004L441.371 94.0732" stroke="#272C3E" stroke-width="0.6" stroke-miterlimit="10"/>
<path d="M465 68L445.845 99.5576" stroke="#272C3E" stroke-width="0.6" stroke-miterlimit="10"/>
<path d="M469 72.9997L449.503 104.679" stroke="#272C3E" stroke-width="0.6" stroke-miterlimit="10"/>
<path d="M473 78.9997L453.422 110.446" stroke="#272C3E" stroke-width="0.6" stroke-miterlimit="10"/>
<path d="M477 86L457.489 116.286" stroke="#272C3E" stroke-width="0.6" stroke-miterlimit="10"/>
<path d="M437.202 38.3911L417 71" stroke="#272C3E" stroke-width="0.6" stroke-miterlimit="10"/>
<path d="M442 42L422.538 74.9639" stroke="#272C3E" stroke-width="0.6" stroke-miterlimit="10"/>
<path d="M446.793 47.0366L427 80" stroke="#272C3E" stroke-width="0.6" stroke-miterlimit="10"/>
<path d="M451.363 52.0264L432 84" stroke="#272C3E" stroke-width="0.6" stroke-miterlimit="10"/>
<path d="M561 240L548.645 260.443" stroke="#272C3E" stroke-width="0.6" stroke-miterlimit="10"/>
<path d="M565 245L555.774 260.848" stroke="#272C3E" stroke-width="0.6" stroke-miterlimit="10"/>
<path d="M570 250L563.668 260.968" stroke="#272C3E" stroke-width="0.6" stroke-miterlimit="10"/>
<path d="M575 254L571.026 261.08" stroke="#272C3E" stroke-width="0.6" stroke-miterlimit="10"/>
<path d="M336 18L394.14 72.4248" stroke="#272C3E" stroke-width="0.6" stroke-miterlimit="10"/>
<path d="M346 38L393.49 82.0771" stroke="#272C3E" stroke-width="0.6" stroke-miterlimit="10"/>
<path d="M356 56L392.817 92.4023" stroke="#272C3E" stroke-width="0.6" stroke-miterlimit="10"/>
<path d="M365 74L392 101.51" stroke="#272C3E" stroke-width="0.6" stroke-miterlimit="10"/>
<path d="M377 96L391 110.151" stroke="#272C3E" stroke-width="0.6" stroke-miterlimit="10"/>
<path d="M328.239 499.001L393.773 444.58" stroke="#272C3E" stroke-width="0.6" stroke-miterlimit="10"/>
<path d="M337.064 483.12L393.183 435.775" stroke="#272C3E" stroke-width="0.6" stroke-miterlimit="10"/>
<path d="M346.041 467.273L391.613 427.714" stroke="#272C3E" stroke-width="0.6" stroke-miterlimit="10"/>
<path d="M355.653 450.568L389.884 420.705" stroke="#272C3E" stroke-width="0.6" stroke-miterlimit="10"/>
<path d="M364.961 434.148L388.144 413.481" stroke="#272C3E" stroke-width="0.6" stroke-miterlimit="10"/>
<path d="M148.911 269.997L161.719 254.168" stroke="#272C3E" stroke-width="0.6" stroke-miterlimit="10"/>
<path d="M156.2 270.617L169.608 254.437" stroke="#272C3E" stroke-width="0.6" stroke-miterlimit="10"/>
<path d="M164.446 270.739L177.832 254.407" stroke="#272C3E" stroke-width="0.6" stroke-miterlimit="10"/>
<path d="M172.065 271.683L185.606 254.941" stroke="#272C3E" stroke-width="0.6" stroke-miterlimit="10"/>
<path d="M179.905 272.089L193.638 255.237" stroke="#272C3E" stroke-width="0.6" stroke-miterlimit="10"/>
<path d="M187.868 272.207L201.499 255.262" stroke="#272C3E" stroke-width="0.6" stroke-miterlimit="10"/>
<path d="M195.618 272.767L209.388 255.467" stroke="#272C3E" stroke-width="0.6" stroke-miterlimit="10"/>
<path d="M203.595 273.089L217.108 255.882" stroke="#272C3E" stroke-width="0.6" stroke-miterlimit="10"/>
<path d="M211 274L224 259" stroke="#272C3E" stroke-width="0.6" stroke-miterlimit="10"/>
<path d="M373.848 418.196L387.844 405.717" stroke="#272C3E" stroke-width="0.6" stroke-miterlimit="10"/>
<path d="M0.999999 260L26.1094 259.1" stroke="#272C3E" stroke-width="0.6" stroke-miterlimit="10"/>
<path d="M2 267L27 266" stroke="#272C3E" stroke-width="0.6" stroke-miterlimit="10"/>
<path d="M4.67291 273.409L30.1084 273.08" stroke="#272C3E" stroke-width="0.6" stroke-miterlimit="10"/>
<path d="M5.43872 280.241L33.2158 279.882" stroke="#272C3E" stroke-width="0.6" stroke-miterlimit="10"/>
<path d="M9.30615 286.998L38.2705 287.023" stroke="#272C3E" stroke-width="0.6" stroke-miterlimit="10"/>
<path d="M13.6293 293.801L45.5215 293.873" stroke="#272C3E" stroke-width="0.6" stroke-miterlimit="10"/>
<path d="M17.7391 300.895L57.5127 301.317" stroke="#272C3E" stroke-width="0.6" stroke-miterlimit="10"/>
<path d="M23.254 307.619L127.443 309.178" stroke="#272C3E" stroke-width="0.6" stroke-miterlimit="10"/>
<path d="M31.0533 314.544L119.207 315.862" stroke="#272C3E" stroke-width="0.6" stroke-miterlimit="10"/>
<path d="M41.388 321.727L107.013 323.205" stroke="#272C3E" stroke-width="0.6" stroke-miterlimit="10"/>
<path d="M123.181 281.47L145.495 281.601" stroke="#272C3E" stroke-width="0.6" stroke-miterlimit="10"/>
<path d="M117.582 288.225L142.604 288.597" stroke="#272C3E" stroke-width="0.6" stroke-miterlimit="10"/>
<path d="M109.55 294.838L138.646 294.901" stroke="#272C3E" stroke-width="0.6" stroke-miterlimit="10"/>
<path d="M97.5939 301.828L133.24 302.205" stroke="#272C3E" stroke-width="0.6" stroke-miterlimit="10"/>
<path d="M130 260L150 261" stroke="#272C3E" stroke-width="0.6" stroke-miterlimit="10"/>
<path d="M129.297 266.951L149 268" stroke="#272C3E" stroke-width="0.6" stroke-miterlimit="10"/>
<path d="M127.048 274.14L147.388 274.444" stroke="#272C3E" stroke-width="0.6" stroke-miterlimit="10"/>
<path d="M65.6328 202.036L29 234" stroke="#272C3E" stroke-width="0.6" stroke-miterlimit="10"/>
<path d="M76.9688 200.412L26 246" stroke="#272C3E" stroke-width="0.6" stroke-miterlimit="10"/>
<path d="M79 207L26 255" stroke="#272C3E" stroke-width="0.6" stroke-miterlimit="10"/>
<path d="M51 241L26.3279 263.547" stroke="#272C3E" stroke-width="0.6" stroke-miterlimit="10"/>
<path d="M48.4238 251.795L29.3287 269.314" stroke="#272C3E" stroke-width="0.6" stroke-miterlimit="10"/>
<path d="M50 261L31.4439 277.089" stroke="#272C3E" stroke-width="0.6" stroke-miterlimit="10"/>
<path d="M52.0879 265.815L34.9483 281.526" stroke="#272C3E" stroke-width="0.6" stroke-miterlimit="10"/>
<path d="M55.4688 271.272L38.0439 287.241" stroke="#272C3E" stroke-width="0.6" stroke-miterlimit="10"/>
<path d="M59.6309 275.967L42.4637 291.53" stroke="#272C3E" stroke-width="0.6" stroke-miterlimit="10"/>
<path d="M65.1367 279.524L47.2834 295.502" stroke="#272C3E" stroke-width="0.6" stroke-miterlimit="10"/>
<path d="M72.5391 281.562L53.0121 299.678" stroke="#272C3E" stroke-width="0.6" stroke-miterlimit="10"/>
<path d="M76.4443 286.19L58.9008 302.48" stroke="#272C3E" stroke-width="0.6" stroke-miterlimit="10"/>
<path d="M77.6445 293.976L65.7129 305.041" stroke="#272C3E" stroke-width="0.6" stroke-miterlimit="10"/>
<path d="M79 216L67 226" stroke="#272C3E" stroke-width="0.6" stroke-miterlimit="10"/>
</svg>
