<svg width="382" height="262" viewBox="0 0 382 262" fill="none" xmlns="http://www.w3.org/2000/svg">
<g clip-path="url(#clip0)">
<path d="M306.339 162.309V261.638L284.466 262C284.466 262 278.869 177.363 230.68 129.087L306.339 162.309Z" stroke="#272C3E" stroke-width="0.4" stroke-miterlimit="10"/>
<path d="M306.338 162.309V261.638L328.215 262C328.215 262 333.812 177.363 382 129.087L306.338 162.309Z" stroke="#272C3E" stroke-width="0.4" stroke-miterlimit="10"/>
<path d="M243.259 134.609L258.153 115.549L353.566 115.039L369.126 135.06" stroke="#272C3E" stroke-width="0.4" stroke-miterlimit="10"/>
<path d="M269.161 115.04L277.601 80.3191H335.735L344.169 115.55" stroke="#272C3E" stroke-width="0.4" stroke-miterlimit="10"/>
<path d="M324.65 80.3193H287.061V56.8995H324.65V80.3193Z" stroke="#272C3E" stroke-width="0.4" stroke-miterlimit="10"/>
<path d="M297.183 56.8984L301.52 5.00021H306.668L313.089 56.8984" stroke="#272C3E" stroke-width="0.4" stroke-miterlimit="10"/>
<path d="M337.183 23.7917L332.362 30.1387L274.815 30.791L270.569 23.7917" stroke="#272C3E" stroke-width="0.4" stroke-miterlimit="10"/>
<path d="M288.991 16.9248H318.867" stroke="#272C3E" stroke-width="0.4" stroke-miterlimit="10"/>
<path d="M250.424 154.118L306.34 180.378L362.656 153.822" stroke="#272C3E" stroke-width="0.4" stroke-miterlimit="10"/>
<path d="M329.672 249.527L283.074 249.669" stroke="#272C3E" stroke-width="0.4" stroke-miterlimit="10"/>
<path d="M251.6 123.893L359.6 122.692" stroke="#272C3E" stroke-width="0.4" stroke-miterlimit="10"/>
<path d="M273.733 96.7314L339.6 96.2693" stroke="#272C3E" stroke-width="0.4" stroke-miterlimit="10"/>
<path d="M287.061 66.8281H324.65" stroke="#272C3E" stroke-width="0.4" stroke-miterlimit="10"/>
<path d="M282.4 123.496L290.278 155.149L306.16 162.322L322.785 155.149L328.8 123.092" stroke="#272C3E" stroke-width="0.4" stroke-miterlimit="10"/>
<path d="M305.273 123.325L306.339 162.322" stroke="#272C3E" stroke-width="0.4" stroke-miterlimit="10"/>
<path d="M288.8 96.6717V115.486" stroke="#272C3E" stroke-width="0.4" stroke-miterlimit="10"/>
<path d="M304.8 96.6716V115.262" stroke="#272C3E" stroke-width="0.4" stroke-miterlimit="10"/>
<path d="M320.4 96.2713L320.315 115.039" stroke="#272C3E" stroke-width="0.4" stroke-miterlimit="10"/>
<path d="M255.541 162.824L306.187 187.363L357.424 162.628" stroke="#272C3E" stroke-width="0.4" stroke-miterlimit="10"/>
<path d="M331.317 239.334L306.4 248.479" stroke="#272C3E" stroke-width="0.4" stroke-miterlimit="10"/>
<path d="M332.004 235.638L306.4 245.021" stroke="#272C3E" stroke-width="0.4" stroke-miterlimit="10"/>
<path d="M332.783 231.76L306.4 241.444" stroke="#272C3E" stroke-width="0.4" stroke-miterlimit="10"/>
<path d="M333.631 227.996L306.4 237.981" stroke="#272C3E" stroke-width="0.4" stroke-miterlimit="10"/>
<path d="M334.4 223.97L306.4 234.778" stroke="#272C3E" stroke-width="0.4" stroke-miterlimit="10"/>
<path d="M335.315 220.591L306.429 231.576" stroke="#272C3E" stroke-width="0.4" stroke-miterlimit="10"/>
<path d="M336 216.765L306.4 227.913" stroke="#272C3E" stroke-width="0.4" stroke-miterlimit="10"/>
<path d="M337.2 212.761L306.4 224.274" stroke="#272C3E" stroke-width="0.4" stroke-miterlimit="10"/>
<path d="M338.456 208.947L306.4 220.731" stroke="#272C3E" stroke-width="0.4" stroke-miterlimit="10"/>
<path d="M339.344 205.192L307.004 216.895" stroke="#272C3E" stroke-width="0.4" stroke-miterlimit="10"/>
<path d="M340.8 201.152L306.809 213.363" stroke="#272C3E" stroke-width="0.4" stroke-miterlimit="10"/>
<path d="M342 197.15L306.045 210.233" stroke="#272C3E" stroke-width="0.4" stroke-miterlimit="10"/>
<path d="M343.6 192.746L306.039 206.598" stroke="#272C3E" stroke-width="0.4" stroke-miterlimit="10"/>
<path d="M345.2 188.743L306.397 203.054" stroke="#272C3E" stroke-width="0.4" stroke-miterlimit="10"/>
<path d="M346.8 184.739L306.4 200.352" stroke="#272C3E" stroke-width="0.4" stroke-miterlimit="10"/>
<path d="M348.4 180.737L306.4 197.149" stroke="#272C3E" stroke-width="0.4" stroke-miterlimit="10"/>
<path d="M350.4 176.333L306.4 193.547" stroke="#272C3E" stroke-width="0.4" stroke-miterlimit="10"/>
<path d="M352.437 172.227L306.4 189.944" stroke="#272C3E" stroke-width="0.4" stroke-miterlimit="10"/>
<path d="M354.253 168.087L321.081 180.139" stroke="#272C3E" stroke-width="0.4" stroke-miterlimit="10"/>
<path d="M330.084 246.731L322 249.59" stroke="#272C3E" stroke-width="0.4" stroke-miterlimit="10"/>
<path d="M330.67 243.061L313.2 249.59" stroke="#272C3E" stroke-width="0.4" stroke-miterlimit="10"/>
<path d="M280 231.977L306.4 241.584" stroke="#272C3E" stroke-width="0.4" stroke-miterlimit="10"/>
<path d="M279.2 227.974L306.4 237.981" stroke="#272C3E" stroke-width="0.4" stroke-miterlimit="10"/>
<path d="M278.4 224.771L306.4 234.778" stroke="#272C3E" stroke-width="0.4" stroke-miterlimit="10"/>
<path d="M277.222 220.492L306.4 231.511" stroke="#272C3E" stroke-width="0.4" stroke-miterlimit="10"/>
<path d="M276.4 216.764L306.4 227.875" stroke="#272C3E" stroke-width="0.4" stroke-miterlimit="10"/>
<path d="M275.6 213.162L306.4 224.332" stroke="#272C3E" stroke-width="0.4" stroke-miterlimit="10"/>
<path d="M274.4 209.159L306.212 220.492" stroke="#272C3E" stroke-width="0.4" stroke-miterlimit="10"/>
<path d="M291.678 180.139L292.655 215.587" stroke="#272C3E" stroke-width="0.4" stroke-miterlimit="10"/>
<path d="M295.69 182.276L296.282 216.899" stroke="#272C3E" stroke-width="0.4" stroke-miterlimit="10"/>
<path d="M299.467 184.107L299.633 218.11" stroke="#272C3E" stroke-width="0.4" stroke-miterlimit="10"/>
<path d="M303.27 185.71L303.316 219.445" stroke="#272C3E" stroke-width="0.4" stroke-miterlimit="10"/>
<path d="M336.217 122.778L336 149.112" stroke="#272C3E" stroke-width="0.4" stroke-miterlimit="10"/>
<path d="M340.4 123.092L340.8 147.11" stroke="#272C3E" stroke-width="0.4" stroke-miterlimit="10"/>
<path d="M344.751 123.14L344.8 145.51" stroke="#272C3E" stroke-width="0.4" stroke-miterlimit="10"/>
<path d="M349.008 123.092L349.244 143.469" stroke="#272C3E" stroke-width="0.4" stroke-miterlimit="10"/>
<path d="M353.246 122.776L353.2 141.906" stroke="#272C3E" stroke-width="0.4" stroke-miterlimit="10"/>
<path d="M357.6 122.692V139.905" stroke="#272C3E" stroke-width="0.4" stroke-miterlimit="10"/>
<path d="M327.2 131.898L327.6 152.985" stroke="#272C3E" stroke-width="0.4" stroke-miterlimit="10"/>
<path d="M332 123.091V151.113" stroke="#272C3E" stroke-width="0.4" stroke-miterlimit="10"/>
<path d="M361.799 125.59V137.957" stroke="#272C3E" stroke-width="0.4" stroke-miterlimit="10"/>
<path d="M366.112 131.098L366 135.901" stroke="#272C3E" stroke-width="0.4" stroke-miterlimit="10"/>
<path d="M276.601 123.668V149.556" stroke="#272C3E" stroke-width="0.4" stroke-miterlimit="10"/>
<path d="M272.349 124.03L272 147.11" stroke="#272C3E" stroke-width="0.4" stroke-miterlimit="10"/>
<path d="M268.071 124.031V145.794" stroke="#272C3E" stroke-width="0.4" stroke-miterlimit="10"/>
<path d="M263.837 123.893L263.6 143.86" stroke="#272C3E" stroke-width="0.4" stroke-miterlimit="10"/>
<path d="M259.576 123.669V141.775" stroke="#272C3E" stroke-width="0.4" stroke-miterlimit="10"/>
<path d="M255.387 123.893L255.2 139.685" stroke="#272C3E" stroke-width="0.4" stroke-miterlimit="10"/>
<path d="M285.2 134.701L285.298 153.293" stroke="#272C3E" stroke-width="0.4" stroke-miterlimit="10"/>
<path d="M281.2 123.492L280.731 151.083" stroke="#272C3E" stroke-width="0.4" stroke-miterlimit="10"/>
<path d="M251.203 124.439V138.043" stroke="#272C3E" stroke-width="0.4" stroke-miterlimit="10"/>
<path d="M276.599 84.1074H336.217" stroke="#272C3E" stroke-width="0.4" stroke-miterlimit="10"/>
<path d="M275.604 88.2041H337.73" stroke="#272C3E" stroke-width="0.4" stroke-miterlimit="10"/>
<path d="M274.632 92.5449L338.548 92.0617" stroke="#272C3E" stroke-width="0.4" stroke-miterlimit="10"/>
<path d="M291.2 67.0485L291.2 80.2588" stroke="#272C3E" stroke-width="0.4" stroke-miterlimit="10"/>
<path d="M295.417 66.8539L295.578 80.4902" stroke="#272C3E" stroke-width="0.4" stroke-miterlimit="10"/>
<path d="M299.694 66.8537V80.3184" stroke="#272C3E" stroke-width="0.4" stroke-miterlimit="10"/>
<path d="M303.95 66.6482L304.103 80.2588" stroke="#272C3E" stroke-width="0.4" stroke-miterlimit="10"/>
<path d="M308.4 66.6482L308.4 80.2588" stroke="#272C3E" stroke-width="0.4" stroke-miterlimit="10"/>
<path d="M312.144 66.9125V80.377" stroke="#272C3E" stroke-width="0.4" stroke-miterlimit="10"/>
<path d="M316.398 66.6483L316.549 80.1475" stroke="#272C3E" stroke-width="0.4" stroke-miterlimit="10"/>
<path d="M320.8 66.6482V80.2588" stroke="#272C3E" stroke-width="0.4" stroke-miterlimit="10"/>
</g>
<defs>
<clipPath id="clip0">
<rect width="382" height="262" fill="white"/>
</clipPath>
</defs>
</svg>
