<svg width="107" height="113" viewBox="0 0 107 113" fill="none" xmlns="http://www.w3.org/2000/svg">
<path d="M86.2999 111.63L53.7556 94.8155L21.4067 112L27.3965 75.9601L1 50.6117L37.2462 45.1516L53.2811 12.3018L69.6928 44.967L106 50.0127L79.8961 75.6606L86.2999 111.63Z" stroke="#272C3E" stroke-width="0.5" stroke-miterlimit="10"/>
<path d="M74.2029 95.9709L53.0998 85.0682L32.1233 96.2109L36.0073 72.8422L18.8906 56.4045L42.3943 52.8636L52.7921 31.5628L63.4342 52.7436L86.9769 56.0157L70.0504 72.6473L74.2029 95.9709Z" stroke="#272C3E" stroke-width="0.5" stroke-miterlimit="10"/>
<path d="M61.1685 48.2343L32.8823 69.8408" stroke="#272C3E" stroke-width="0.5" stroke-miterlimit="10"/>
<path d="M60.6953 46.7963L31.9038 68.7188" stroke="#272C3E" stroke-width="0.5" stroke-miterlimit="10"/>
<path d="M59.6999 45.6972L30.8813 67.7109" stroke="#272C3E" stroke-width="0.5" stroke-miterlimit="10"/>
<path d="M59.2268 44.2603L29.7676 66.6904" stroke="#272C3E" stroke-width="0.5" stroke-miterlimit="10"/>
<path d="M58.3922 43.1237L28.9126 65.6421" stroke="#272C3E" stroke-width="0.5" stroke-miterlimit="10"/>
<path d="M57.9199 41.6865L27.7524 64.6562" stroke="#272C3E" stroke-width="0.5" stroke-miterlimit="10"/>
<path d="M57.1418 40.423L43.3101 50.9883" stroke="#272C3E" stroke-width="0.5" stroke-miterlimit="10"/>
<path d="M56.6693 38.985L44.7329 48.0742" stroke="#272C3E" stroke-width="0.5" stroke-miterlimit="10"/>
<path d="M55.6733 37.8861L46.1914 45.1289" stroke="#272C3E" stroke-width="0.5" stroke-miterlimit="10"/>
<path d="M55.2006 36.4496L47.5078 42.3066" stroke="#272C3E" stroke-width="0.5" stroke-miterlimit="10"/>
<path d="M54.3655 35.3128L48.937 39.46" stroke="#272C3E" stroke-width="0.5" stroke-miterlimit="10"/>
<path d="M53.8935 33.8753L50.3442 36.5771" stroke="#272C3E" stroke-width="0.5" stroke-miterlimit="10"/>
<path d="M53.305 32.6109L51.6748 33.8521" stroke="#272C3E" stroke-width="0.5" stroke-miterlimit="10"/>
<path d="M40.4431 53.1403L26.6113 63.7056" stroke="#272C3E" stroke-width="0.5" stroke-miterlimit="10"/>
<path d="M37.4497 53.6379L25.5132 62.7261" stroke="#272C3E" stroke-width="0.5" stroke-miterlimit="10"/>
<path d="M34.4495 54.0606L24.5327 61.6357" stroke="#272C3E" stroke-width="0.5" stroke-miterlimit="10"/>
<path d="M31.6059 54.4892L23.4507 60.7832" stroke="#272C3E" stroke-width="0.5" stroke-miterlimit="10"/>
<path d="M28.7035 54.9965L22.5161 59.7222" stroke="#272C3E" stroke-width="0.5" stroke-miterlimit="10"/>
<path d="M25.9263 55.3584L21.4995 58.729" stroke="#272C3E" stroke-width="0.5" stroke-miterlimit="10"/>
<path d="M23.2132 55.753L20.562 57.8486" stroke="#272C3E" stroke-width="0.5" stroke-miterlimit="10"/>
<path d="M68.6108 53.4638L35.019 79.123" stroke="#272C3E" stroke-width="0.5" stroke-miterlimit="10"/>
<path d="M66.4672 53.3069L35.3848 76.9731" stroke="#272C3E" stroke-width="0.5" stroke-miterlimit="10"/>
<path d="M64.5593 52.9L35.6519 74.9814" stroke="#272C3E" stroke-width="0.5" stroke-miterlimit="10"/>
<path d="M63.1183 52.2016L36.0073 72.8418" stroke="#272C3E" stroke-width="0.5" stroke-miterlimit="10"/>
<path d="M62.2838 51.0662L35.019 71.8921" stroke="#272C3E" stroke-width="0.5" stroke-miterlimit="10"/>
<path d="M61.8111 49.6281L33.9487 70.8428" stroke="#272C3E" stroke-width="0.5" stroke-miterlimit="10"/>
<path d="M74.0071 94.8711L47.3862 69.6755" stroke="#272C3E" stroke-width="0.5" stroke-miterlimit="10"/>
<path d="M73.4245 92.3438L48.6514 68.8242" stroke="#272C3E" stroke-width="0.5" stroke-miterlimit="10"/>
<path d="M73.1498 90.0566L49.7271 67.888" stroke="#272C3E" stroke-width="0.5" stroke-miterlimit="10"/>
<path d="M72.5892 87.54L50.9248 66.9726" stroke="#272C3E" stroke-width="0.5" stroke-miterlimit="10"/>
<path d="M72.3127 85.3535L52.1875 66.3063" stroke="#272C3E" stroke-width="0.5" stroke-miterlimit="10"/>
<path d="M71.8858 82.9551L52.9829 65.0095" stroke="#272C3E" stroke-width="0.5" stroke-miterlimit="10"/>
<path d="M51.747 85.7866L40.4434 75.088" stroke="#272C3E" stroke-width="0.5" stroke-miterlimit="10"/>
<path d="M53.0997 85.0679L41.708 74.2369" stroke="#272C3E" stroke-width="0.5" stroke-miterlimit="10"/>
<path d="M57.6577 87.3779L42.7837 73.3005" stroke="#272C3E" stroke-width="0.5" stroke-miterlimit="10"/>
<path d="M62.403 89.8745L43.9819 72.3854" stroke="#272C3E" stroke-width="0.5" stroke-miterlimit="10"/>
<path d="M66.8607 92.1777L45.2446 71.7191" stroke="#272C3E" stroke-width="0.5" stroke-miterlimit="10"/>
<path d="M71.4544 94.5513L46.0396 70.4224" stroke="#272C3E" stroke-width="0.5" stroke-miterlimit="10"/>
<path d="M79.7774 63.09L55.1445 63.7495" stroke="#272C3E" stroke-width="0.5" stroke-miterlimit="10"/>
<path d="M81.2881 61.606L57.1421 62.2153" stroke="#272C3E" stroke-width="0.5" stroke-miterlimit="10"/>
<path d="M82.8152 60.1053L59.084 60.7402" stroke="#272C3E" stroke-width="0.5" stroke-miterlimit="10"/>
<path d="M84.3597 58.6242L61.0859 59.2109" stroke="#272C3E" stroke-width="0.5" stroke-miterlimit="10"/>
<path d="M85.7829 57.1894L62.9321 57.8008" stroke="#272C3E" stroke-width="0.5" stroke-miterlimit="10"/>
<path d="M85.1807 55.7665L64.9268 56.2773" stroke="#272C3E" stroke-width="0.5" stroke-miterlimit="10"/>
<path d="M78.3109 64.634L53.4473 65.2607" stroke="#272C3E" stroke-width="0.5" stroke-miterlimit="10"/>
<path d="M76.691 54.5868L66.6909 54.8535" stroke="#272C3E" stroke-width="0.5" stroke-miterlimit="10"/>
<path d="M53.2814 12.3019L52.7925 31.5625" stroke="#272C3E" stroke-width="0.5" stroke-miterlimit="10"/>
<path d="M55.5215 36.9951L63.7966 33.2316" stroke="#272C3E" stroke-width="0.5" stroke-miterlimit="10"/>
<path d="M15.4004 48.4424L22.5163 55.7529" stroke="#272C3E" stroke-width="0.5" stroke-miterlimit="10"/>
<path d="M53.7559 94.8154L53.1001 85.5159" stroke="#272C3E" stroke-width="0.5" stroke-miterlimit="10"/>
<path d="M72.8359 88.2949L82.1446 88.2929" stroke="#272C3E" stroke-width="0.5" stroke-miterlimit="10"/>
<path d="M21.4062 112L32.1229 96.2106" stroke="#272C3E" stroke-width="0.5" stroke-miterlimit="10"/>
<path d="M106 50.0129L86.9771 56.0156" stroke="#272C3E" stroke-width="0.5" stroke-miterlimit="10"/>
<path d="M1 50.6119L18.8907 56.4043" stroke="#272C3E" stroke-width="0.5" stroke-miterlimit="10"/>
<path d="M86.3 111.63L74.2031 95.9707" stroke="#272C3E" stroke-width="0.5" stroke-miterlimit="10"/>
<path d="M70.0508 72.647L79.8965 75.6606" stroke="#272C3E" stroke-width="0.5" stroke-miterlimit="10"/>
<path d="M27.3965 75.96L35.8312 72.8417" stroke="#272C3E" stroke-width="0.5" stroke-miterlimit="10"/>
<path d="M63.4341 52.7432L69.6926 44.9669" stroke="#272C3E" stroke-width="0.5" stroke-miterlimit="10"/>
<path d="M42.3943 52.8638L37.2461 45.1522" stroke="#272C3E" stroke-width="0.5" stroke-miterlimit="10"/>
<path d="M84.3599 47.005L83.8931 55.2593" stroke="#272C3E" stroke-width="0.5" stroke-miterlimit="10"/>
<path d="M97.3862 40.5603L82.6991 35.5402L70.2223 44.7505L70.4755 29.279L57.8296 20.3006L72.6731 15.7596L77.3343 1.00002L86.255 13.665L101.782 13.5214L92.4514 25.8899L97.3862 40.5603Z" stroke="#272C3E" stroke-width="0.5" stroke-miterlimit="10"/>
<path d="M96.9085 40.2007L71.3774 16.036" stroke="#272C3E" stroke-width="0.5" stroke-miterlimit="10"/>
<path d="M96.3257 37.6729L72.8052 15.3422" stroke="#272C3E" stroke-width="0.5" stroke-miterlimit="10"/>
<path d="M95.3803 34.7495L73.2812 13.8344" stroke="#272C3E" stroke-width="0.5" stroke-miterlimit="10"/>
<path d="M94.5806 32.0063L73.8257 12.3016" stroke="#272C3E" stroke-width="0.5" stroke-miterlimit="10"/>
<path d="M87.3236 37.1206L66.8833 17.7144" stroke="#272C3E" stroke-width="0.5" stroke-miterlimit="10"/>
<path d="M90.502 38.2075L68.1455 17.0483" stroke="#272C3E" stroke-width="0.5" stroke-miterlimit="10"/>
<path d="M93.827 39.3784L69.748 16.5174" stroke="#272C3E" stroke-width="0.5" stroke-miterlimit="10"/>
<path d="M86.2549 13.6655L81.7871 19.5112" stroke="#272C3E" stroke-width="0.5" stroke-miterlimit="10"/>
<path d="M78.435 28.6821L70.2222 44.7505" stroke="#272C3E" stroke-width="0.5" stroke-miterlimit="10"/>
</svg>
