<svg width="79" height="79" viewBox="0 0 79 79" fill="none" xmlns="http://www.w3.org/2000/svg">
<path d="M58.6447 36.8512C58.6447 36.8512 58.2982 38.1761 56.53 37.89C54.7618 37.6038 52.1872 35.9928 50.8909 38.3063C49.5886 40.6217 50.7057 42.7286 47.8563 43.2221C45.0128 43.7173 43.0833 34.4581 48.2207 32.5585" stroke="white" stroke-width="0.5" stroke-miterlimit="10"/>
<path d="M45.4551 41.1149C45.4551 41.1149 45.9454 45.3281 46.9084 45.3807C47.8713 45.4333 47.8595 44.1815 47.8595 44.1815" stroke="white" stroke-width="0.5" stroke-miterlimit="10"/>
<path d="M3.21787 49.7947C3.1066 49.6664 3.16512 49.4609 3.31737 49.3871C3.95568 49.0925 6.93641 47.2684 20.8679 36.4347C20.8679 36.4347 26.6243 31.6141 29.6402 36.7123C29.6402 36.7123 30.0209 37.9251 29.851 39.2087C29.6754 40.4918 31.4087 40.8379 32.0646 40.1791C32.7263 39.5209 33.7336 36.5384 32.0646 34.9092C32.0646 34.9092 31.0574 35.0726 30.1263 34.6317C29.201 34.1895 29.0253 34.7002 29.0253 34.7002C29.0253 34.7002 28.8497 34.6317 28.8087 34.4577L28.6623 34.5526C28.6623 34.5526 26.6419 32.3865 30.1672 31.1116C30.1672 31.1116 30.0209 30.0183 31.0866 29.9673C32.1524 29.9146 35.3381 30.478 36.8197 29.5685C38.3013 28.6574 36.89 30.9295 35.8476 31.0853C35.8476 31.0853 35.6251 31.4753 37.2179 32.5323C38.8108 33.5905 38.2427 34.2844 38.2427 34.2844C38.2427 34.2844 39.1094 35.636 39.0743 35.845C39.0391 36.0518 38.2954 36.5033 39.4725 37.1105V62.928C39.4725 62.928 33.9386 63.2753 30.6123 61.1601C30.6123 61.1601 34.1493 57.8315 32.7263 57.3449C31.3033 56.8588 30.5421 58.8709 30.8876 59.5309C31.2331 60.1891 29.9213 59.7382 29.9213 59.5643C29.9213 59.3904 30.056 61.4722 28.8789 61.7498C28.8789 61.7498 29.3005 59.0091 26.1266 55.7983C22.9526 52.5857 25.5 49.1921 29.2186 50.0488C32.943 50.9073 30.8465 48.1392 27.8658 48.1778C24.891 48.2165 24.3405 48.4496 20.2354 49.7631C20.2354 49.7631 18.6719 50.2192 16.7218 50.0102C14.7718 49.8035 12.3825 50.532 10.7662 50.5566C9.32566 50.5812 4.00843 50.6655 3.21787 49.7947V49.7947Z" stroke="white" stroke-width="0.5" stroke-miterlimit="10"/>
<path d="M75.7559 49.7947C75.8714 49.6671 75.8107 49.4616 75.6526 49.3874C75.0204 49.0926 72.0354 47.2688 58.1076 36.4354C58.1076 36.4354 52.3505 31.6145 49.3352 36.7126C49.3352 36.7126 48.9522 37.9254 49.1285 39.2088C49.2987 40.4921 47.5661 40.838 46.9095 40.1797C46.2468 39.5213 45.2438 36.5387 46.9095 34.9095C46.9095 34.9095 47.9187 35.073 48.8488 34.6323C49.779 34.1897 49.9492 34.701 49.9492 34.701C49.9492 34.701 50.1255 34.6323 50.1681 34.4584L50.3139 34.5532C50.3139 34.5532 52.3323 32.3872 48.8063 31.1123C48.8063 31.1123 48.9522 30.0187 47.8883 29.9676C46.8183 29.9153 43.6389 30.4789 42.1555 29.5694C40.6722 28.6581 42.0886 30.93 43.1282 31.0862C43.1282 31.0862 43.3531 31.4759 41.7604 32.5325C40.1615 33.5915 40.7329 34.2845 40.7329 34.2845C40.7329 34.2845 39.8696 35.6366 39.9 35.8451C39.9365 36.0524 40.6843 36.5035 39.5049 37.1108V62.9285C39.5049 62.9285 45.0371 63.2756 48.3625 61.1606C48.3625 61.1606 44.8243 57.8316 46.2469 57.3459C47.6694 56.8595 48.4294 58.8712 48.0889 59.5314C47.7363 60.1898 49.0555 59.7387 49.0555 59.5648C49.0555 59.391 48.9157 61.4731 50.1011 61.7503C50.1011 61.7503 49.6756 59.0098 52.849 55.7987C56.0224 52.5863 53.4752 49.1929 49.7547 50.0495C46.0341 50.9079 48.1315 48.1393 51.1104 48.1782C54.0831 48.2165 54.6303 48.45 58.7399 49.7631C58.7399 49.7631 60.3023 50.2197 62.2538 50.0111C64.2052 49.8038 66.5944 50.5321 68.2054 50.5571C69.6462 50.5814 74.9656 50.6659 75.7559 49.7947V49.7947Z" stroke="white" stroke-width="0.5" stroke-miterlimit="10"/>
<path d="M30.167 31.1119C30.167 31.1119 31.0618 33.6087 32.0671 34.9097" stroke="white" stroke-width="0.5" stroke-miterlimit="10"/>
<path d="M28.8076 34.458C28.8076 34.458 28.4418 33.3312 29.6203 33.4519C30.7988 33.5733 30.973 33.7648 31.2168 33.5228" stroke="white" stroke-width="0.5" stroke-miterlimit="10"/>
<path d="M30.8676 31.8055C30.8676 31.8055 30.7861 30.9893 31.8915 31.0422C33.0026 31.0946 33.1596 31.1121 33.1596 31.1121C33.1596 31.1121 33.1771 32.3075 31.8216 32.2552C31.8216 32.2552 31.1991 32.2726 30.8676 31.8055Z" stroke="white" stroke-width="0.5" stroke-miterlimit="10"/>
<path d="M31.9721 31.4176C31.9721 31.6245 31.8036 31.793 31.5944 31.793C31.3853 31.793 31.2168 31.6245 31.2168 31.4176C31.2168 31.2085 31.3853 31.04 31.5944 31.04C31.8036 31.04 31.9721 31.2085 31.9721 31.4176Z" fill="white"/>
<path d="M31.9721 31.4176C31.9721 31.6245 31.8036 31.793 31.5944 31.793C31.3853 31.793 31.2168 31.6245 31.2168 31.4176C31.2168 31.2085 31.3853 31.04 31.5944 31.04C31.8036 31.04 31.9721 31.2085 31.9721 31.4176Z" stroke="white" stroke-width="0.5" stroke-miterlimit="10"/>
<path d="M20.3311 36.8508C20.3311 36.8508 20.6753 38.1763 22.443 37.8904C24.2107 37.604 26.7893 35.9926 28.0903 38.3064C29.3913 40.6219 28.2712 42.7286 31.1182 43.2216C33.9652 43.7169 35.8905 34.4583 30.7565 32.5587" stroke="white" stroke-width="0.5" stroke-miterlimit="10"/>
<path d="M10.5322 44.3441C10.5322 44.3441 19.5334 45.511 22.4437 37.8902" stroke="white" stroke-width="0.5" stroke-miterlimit="10"/>
<path d="M5.27539 48.1564C5.27539 48.1564 5.9438 49.6102 24.1753 41.236" stroke="white" stroke-width="0.5" stroke-miterlimit="10"/>
<path d="M25.2993 43.3463C25.2993 43.3463 12.4977 51.6959 4.73828 50.3194" stroke="white" stroke-width="0.5" stroke-miterlimit="10"/>
<path d="M27.6972 43.0674C27.6972 43.0674 24.3021 47.3931 18.472 49.2226C16.2858 49.9091 13.764 50.2428 10.9531 49.8703" stroke="white" stroke-width="0.5" stroke-miterlimit="10"/>
<path d="M26.6838 47.0715C26.6838 47.0715 20.3343 50.3948 18.6992 49.1503" stroke="white" stroke-width="0.5" stroke-miterlimit="10"/>
<path d="M22.5735 37.8679C22.5735 37.8679 21.3539 40.0499 22.0533 40.3094C22.7585 40.5695 25.949 39.2355 27.0819 37.3021" stroke="white" stroke-width="0.5" stroke-miterlimit="10"/>
<path d="M28.5217 39.2979C28.5217 39.2979 26.322 42.3121 24.4638 41.8172C24.4638 41.8172 23.5376 41.1989 24.9848 39.2979" stroke="white" stroke-width="0.5" stroke-miterlimit="10"/>
<path d="M29.0394 41.5015C29.0394 41.5015 26.9427 44.1068 25.4657 43.7697C25.4657 43.7697 24.678 43.366 26.5662 41.2363" stroke="white" stroke-width="0.5" stroke-miterlimit="10"/>
<path d="M29.9863 42.8404C29.9863 42.8404 28.821 44.5327 27.6962 44.4063C26.5772 44.2817 28.6296 41.9684 28.6296 41.9684" stroke="white" stroke-width="0.5" stroke-miterlimit="10"/>
<path d="M31.4174 43.241C31.4174 43.241 31.1038 45.095 29.9832 45.1479C28.8683 45.199 29.5186 43.4082 29.5186 43.4082" stroke="white" stroke-width="0.5" stroke-miterlimit="10"/>
<path d="M33.5236 41.115C33.5236 41.115 33.0289 45.3283 32.0687 45.3807C31.1027 45.4336 31.1201 44.1819 31.1201 44.1819" stroke="white" stroke-width="0.5" stroke-miterlimit="10"/>
<path d="M26.8585 43.9976C26.8585 43.9976 25.8102 46.7592 26.8585 47.3575C27.9069 47.9564 29.0363 44.4592 28.8741 43.9976" stroke="white" stroke-width="0.5" stroke-miterlimit="10"/>
<path d="M30.8679 44.6089C30.8679 44.6089 30.8621 45.0076 30.7808 45.5322C30.6358 46.4085 30.2702 47.6405 29.33 47.9829C29.33 47.9829 28.4537 47.5233 28.6743 45.1515" stroke="white" stroke-width="0.5" stroke-miterlimit="10"/>
<path d="M33.523 48.3989C33.523 48.3989 31.3989 48.3902 30.7471 45.7109" stroke="white" stroke-width="0.5" stroke-miterlimit="10"/>
<path d="M33.5229 49.0747C33.5229 49.0747 32.8712 51.6242 31.1195 51.2849C29.362 50.948 27.4881 50.5319 26.685 52.3261C25.8761 54.1202 25.4629 54.0678 25.4629 54.0678C25.4629 54.0678 26.1089 54.5625 26.685 54.303C27.2553 54.0434 27.3077 53.4952 27.3077 53.4952C27.3077 53.4952 27.4881 55.4215 26.8654 55.4983C26.8654 55.4983 27.2844 55.4983 27.6976 55.056L27.6394 55.8882L28.1632 55.5251C28.1632 55.5251 27.878 56.9293 28.1166 56.9817C28.3494 57.0329 28.3494 56.8257 28.3494 56.8257C28.3494 56.8257 28.8266 58.4249 28.233 58.7427" stroke="white" stroke-width="0.5" stroke-miterlimit="10"/>
<path d="M33.5244 41.1155V54.619C33.5244 55.3441 34.0903 55.9324 34.7859 55.9324H38.5824C38.5824 55.9324 39.5257 56.0603 39.6849 57.3979C39.6849 57.3979 39.7261 56.1093 40.8285 55.9324H44.6014C45.2911 55.9324 45.8512 55.3512 45.8512 54.6349V41.1155H33.5244Z" fill="#EDC71A"/>
<path d="M33.5244 41.1155V54.619C33.5244 55.3441 34.0903 55.9324 34.7859 55.9324H38.5824C38.5824 55.9324 39.5257 56.0603 39.6849 57.3979C39.6849 57.3979 39.7261 56.1093 40.8285 55.9324H44.6014C45.2911 55.9324 45.8512 55.3512 45.8512 54.6349V41.1155H33.5244Z" stroke="white" stroke-width="0.5" stroke-miterlimit="10"/>
<path d="M26.2381 55.916C26.2381 55.916 25.4339 57.5014 23.6691 57.6311C21.8985 57.7612 22.0548 56.2007 21.4819 55.7338C20.9091 55.2645 20.6256 55.7338 20.6256 55.7338C20.6256 55.7338 19.3758 54.7958 17.3449 58.1773C17.3449 58.1773 17.1655 58.827 17.9177 59.1129C17.9177 59.1129 17.7904 60.3627 18.855 60.31C18.855 60.31 18.8088 60.7261 19.3237 60.9598C19.8445 61.1947 20.2495 61.4551 20.3305 61.6622C20.4173 61.8711 20.4694 62.5996 21.1464 62.7032C21.1464 62.7032 21.1695 62.963 21.615 63.3015C22.0548 63.6388 22.888 63.6388 22.888 62.9491C22.888 62.2605 22.807 62.157 22.859 61.8445C22.9111 61.532 22.7549 61.0894 22.4424 60.8562V60.3627C22.4424 60.3627 24.346 59.6082 27.3606 59.3484C27.3606 59.3484 28.0781 58.7426 28.0434 58.3561" stroke="white" stroke-width="0.5" stroke-miterlimit="10"/>
<path d="M20.6213 55.7338C20.6213 55.7338 20.1791 56.5397 19.5071 56.9291C19.5071 56.9291 19.082 58.2301 20.2767 58.1422C20.2767 58.1422 21.1785 57.7086 20.2595 57.0153" stroke="white" stroke-width="0.5" stroke-miterlimit="10"/>
<path d="M17.915 59.1134C17.915 59.1134 18.1907 58.8199 18.696 59.1134C19.2014 59.4079 19.9134 59.9983 20.4302 59.3396C20.9528 58.6815 19.8962 57.8139 19.3219 58.6637C19.3219 58.6637 18.9372 58.3266 18.8568 58.743" stroke="white" stroke-width="0.5" stroke-miterlimit="10"/>
<path d="M18.8574 60.3102C18.8574 60.3102 19.3227 60.1895 19.7593 60.4141C20.1902 60.6405 21.3334 60.2384 20.4314 59.3393" stroke="white" stroke-width="0.5" stroke-miterlimit="10"/>
<path d="M20.124 61.4199C20.124 61.4199 21.4403 61.7837 21.6472 61.0394C21.8542 60.2933 20.7793 60.0421 20.5724 60.314" stroke="white" stroke-width="0.5" stroke-miterlimit="10"/>
<path d="M20.373 61.8025C20.373 61.8025 22.2365 62.3731 22.4436 60.8564" stroke="white" stroke-width="0.5" stroke-miterlimit="10"/>
<path d="M21.1465 62.7031C21.1465 62.7031 22.0614 62.7888 22.8612 61.8445" stroke="white" stroke-width="0.5" stroke-miterlimit="10"/>
<path d="M21.4541 63.1704C21.4541 63.1704 22.4726 63.3108 22.8754 62.5294" stroke="white" stroke-width="0.5" stroke-miterlimit="10"/>
<path d="M21.1437 56.7902C21.1437 56.7902 21.3448 57.5152 20.6611 57.5342" stroke="white" stroke-width="0.5" stroke-miterlimit="10"/>
<path d="M20.6611 57.7071C20.6611 57.7071 22.1793 59.2465 22.2655 61.3828" stroke="white" stroke-width="0.5" stroke-miterlimit="10"/>
<path d="M18.5949 57.7072C18.5949 57.7072 18.0908 58.2989 18.0908 58.4375" stroke="white" stroke-width="0.5" stroke-miterlimit="10"/>
<path d="M21.1689 58.3088C21.1689 58.3088 21.8022 59.2183 23.2932 58.4371" stroke="white" stroke-width="0.5" stroke-miterlimit="10"/>
<path d="M18.9955 58.5428C18.9955 58.5428 17.8996 56.6345 17.9168 55.8376C17.9168 55.8376 17.3775 55.8376 17.3258 54.9528C17.3258 54.9528 17.0332 54.6929 17.0504 54.4152C17.0676 54.1381 17.0504 53.3056 17.0504 53.3056C17.0504 53.3056 16.3906 53.2356 16.5685 52.4914L13.2693 44.7439C13.2693 44.7439 12.403 44.8087 12.5923 43.8907C12.5923 43.8907 12.0128 43.6383 12.1447 43.1305C12.1447 43.1305 11.8005 43.6606 11.4849 43.6274C11.1751 43.5958 10.7046 43.0341 9.64888 42.5177L9.56282 42.2951C9.56282 42.2951 7.18748 41.2032 8.1055 39.3827C8.1055 39.3827 8.73088 39.3827 9.12678 39.7109C9.12678 39.7109 9.02352 39.4561 9.35057 39.2983C9.35057 39.2983 8.71368 38.5151 9.51121 38.1674C9.51121 38.1674 9.21285 37.4233 9.85547 37.0756C10.4981 36.7302 10.9513 37.3022 10.9513 37.3022C10.9513 37.3022 11.8349 37.0773 12.0415 37.9006L12.0931 38.0464C12.0931 38.0464 12.3857 37.9431 12.489 38.152C12.489 38.152 12.4374 37.2861 12.9767 36.9654C12.9767 36.9654 15.2488 38.5501 13.8603 40.8905C13.8603 40.8905 14.83 42.2423 13.3037 42.4161C13.3037 42.4161 13.8947 42.7128 13.7054 43.2498C13.7054 43.2498 14.6578 43.4311 14.1013 44.414L17.9168 51.8488C17.9168 51.8488 18.6282 51.9876 18.3414 52.7685C18.3414 52.7685 18.8348 53.4444 19.1159 53.6693C19.3913 53.8954 19.3225 54.3274 19.3225 54.3274C19.3225 54.3274 19.8274 54.5925 19.5635 55.2477L20.0512 56.4905C20.0512 56.4905 19.2823 57.0155 19.4315 57.3104C19.5807 57.6053 19.4488 57.8033 19.8102 58.0861C20.1717 58.369 19.466 58.2651 19.4201 58.5428C19.3742 58.82 18.9955 58.5428 18.9955 58.5428" fill="#EDC71A"/>
<path d="M18.9955 58.5428C18.9955 58.5428 17.8996 56.6345 17.9168 55.8376C17.9168 55.8376 17.3775 55.8376 17.3258 54.9528C17.3258 54.9528 17.0332 54.6929 17.0504 54.4152C17.0676 54.1381 17.0504 53.3056 17.0504 53.3056C17.0504 53.3056 16.3906 53.2356 16.5685 52.4914L13.2693 44.7439C13.2693 44.7439 12.403 44.8087 12.5923 43.8907C12.5923 43.8907 12.0128 43.6383 12.1447 43.1305C12.1447 43.1305 11.8005 43.6606 11.4849 43.6274C11.1751 43.5958 10.7046 43.0341 9.64888 42.5177L9.56282 42.2951C9.56282 42.2951 7.18748 41.2032 8.1055 39.3827C8.1055 39.3827 8.73088 39.3827 9.12678 39.7109C9.12678 39.7109 9.02352 39.4561 9.35057 39.2983C9.35057 39.2983 8.71368 38.5151 9.51121 38.1674C9.51121 38.1674 9.21285 37.4233 9.85547 37.0756C10.4981 36.7302 10.9513 37.3022 10.9513 37.3022C10.9513 37.3022 11.8349 37.0773 12.0415 37.9006L12.0931 38.0464C12.0931 38.0464 12.3857 37.9431 12.489 38.152C12.489 38.152 12.4374 37.2861 12.9767 36.9654C12.9767 36.9654 15.2488 38.5501 13.8603 40.8905C13.8603 40.8905 14.83 42.2423 13.3037 42.4161C13.3037 42.4161 13.8947 42.7128 13.7054 43.2498C13.7054 43.2498 14.6578 43.4311 14.1013 44.414L17.9168 51.8488C17.9168 51.8488 18.6282 51.9876 18.3414 52.7685C18.3414 52.7685 18.8348 53.4444 19.1159 53.6693C19.3913 53.8954 19.3225 54.3274 19.3225 54.3274C19.3225 54.3274 19.8274 54.5925 19.5635 55.2477L20.0512 56.4905C20.0512 56.4905 19.2823 57.0155 19.4315 57.3104C19.5807 57.6053 19.4488 57.8033 19.8102 58.0861C20.1717 58.369 19.466 58.2651 19.4201 58.5428C19.3742 58.82 18.9955 58.5428 18.9955 58.5428V58.5428Z" stroke="white" stroke-width="0.5" stroke-miterlimit="10"/>
<path d="M17.9189 55.8372C17.9189 55.8372 18.6988 56.1836 19.5646 55.2478" stroke="white" stroke-width="0.5" stroke-miterlimit="10"/>
<path d="M17.3242 54.9527C17.3242 54.9527 18.5452 55.8549 19.3249 54.3273" stroke="white" stroke-width="0.5" stroke-miterlimit="10"/>
<path d="M17.0488 53.3058C17.0488 53.3058 17.9708 53.4095 18.343 52.7687" stroke="white" stroke-width="0.5" stroke-miterlimit="10"/>
<path d="M16.5684 52.4909C16.5684 52.4909 17.8333 53.0616 17.9192 51.8482" stroke="white" stroke-width="0.5" stroke-miterlimit="10"/>
<path d="M13.2725 44.7434C13.2725 44.7434 13.9337 44.9224 14.1047 44.4134" stroke="white" stroke-width="0.5" stroke-miterlimit="10"/>
<path d="M13.7039 43.2503C13.7039 43.2503 13.5842 44.0805 12.5928 43.8908" stroke="white" stroke-width="0.5" stroke-miterlimit="10"/>
<path d="M13.3066 42.4161C13.3066 42.4161 12.3782 42.1125 12.1504 43.1309" stroke="white" stroke-width="0.5" stroke-miterlimit="10"/>
<path d="M33.5232 50.6526C33.5232 50.6526 31.2012 53.0369 33.5232 54.6187" stroke="white" stroke-width="0.5" stroke-miterlimit="10"/>
<path d="M32.5896 52.2363C32.5896 52.2363 28.6494 50.2195 27.1689 52.7684C27.1689 52.7684 29.343 51.5887 30.3747 52.491C30.3747 52.491 27.5245 52.3173 27.6993 54.3276C27.8684 56.3391 28.7252 53.5652 29.7568 53.7039C30.7827 53.8426 30.7827 53.8426 30.7827 53.8426C30.7827 53.8426 28.562 53.9376 28.5211 56.1654C28.4803 58.3948 29.3314 60.4751 29.3314 60.4751C29.3314 60.4751 29.9026 58.906 29.7568 58.4374C29.6053 57.9699 29.8618 59.1479 30.3747 59.3397C30.3747 59.3397 29.9667 56.7203 32.4905 56.6515C35.0143 56.5815 33.0092 55.5807 32.7994 53.9097" stroke="white" stroke-width="0.5" stroke-miterlimit="10"/>
<path d="M39.4725 57.7068C39.4725 57.7068 38.8635 56.2709 37.7567 56.3394C36.644 56.4097 33.8741 56.5795 33.962 58.0722C34.044 59.5643 31.3033 60.3631 31.7542 61.0213C32.2052 61.6795 33.962 61.8447 33.962 61.8447L34.2548 60.8562C34.2548 60.8562 34.6705 62.4888 35.5899 62.2745C36.5093 62.0608 36.5737 61.8447 36.5737 61.8447C36.5737 61.8447 37.2706 62.6891 38.1021 62.7049C38.9337 62.7208 39.1446 61.3832 39.1446 61.3832C39.1446 61.3832 38.067 62.5855 37.1652 61.5091H37.7215C37.7215 61.5091 36.9603 60.6577 36.4391 60.4755C35.9179 60.2928 36.9251 57.749 39.4725 58.3088" stroke="white" stroke-width="0.5" stroke-miterlimit="10"/>
<path d="M32.3223 31.04C32.3223 31.04 32.6144 30.5311 33.6253 30.6608C34.6421 30.7911 36.4127 30.7 37.4236 29.353" stroke="white" stroke-width="0.5" stroke-miterlimit="10"/>
<path d="M33.1608 31.4174C33.1608 31.4174 35.2131 32.1421 35.2656 33.703C35.3181 35.2638 32.6943 32.0424 32.6943 32.0424" stroke="white" stroke-width="0.5" stroke-miterlimit="10"/>
<path d="M31.8604 33.1483C31.8604 33.1483 34.0217 34.9688 34.5052 33.8841" stroke="white" stroke-width="0.5" stroke-miterlimit="10"/>
<path d="M34.2754 32.0354C34.2754 32.0354 35.9721 32.5585 37.2944 34.6648C38.6225 36.7717 37.6337 41.1147 37.6337 41.1147" stroke="white" stroke-width="0.5" stroke-miterlimit="10"/>
<path d="M34.3101 34.1297C34.3101 34.1297 33.9127 34.7953 35.2687 36.1998C35.2687 36.1998 35.029 35.2378 35.6836 35.5762C36.3323 35.9134 37.1915 38.073 37.1915 38.5148C37.1915 38.9573 37.6065 35.5937 37.1915 34.5055" stroke="white" stroke-width="0.5" stroke-miterlimit="10"/>
<path d="M33.9551 41.1157C33.9551 41.1157 35.6841 39.8639 34.6385 36.5758C34.6385 36.5758 35.5264 37.903 35.7075 38.8458C35.8886 39.7903 35.7075 40.3429 35.7075 40.3429C35.7075 40.3429 36.4085 39.0613 36.4085 38.1769C36.4085 37.2937 37.086 40.2588 36.5895 41.1157" stroke="white" stroke-width="0.5" stroke-miterlimit="10"/>
<path d="M32.1397 54.1973C32.1397 54.1973 30.1426 54.2695 29.4963 55.5738C28.8441 56.8763 29.2051 58.1475 29.2051 58.1475C29.2051 58.1475 29.3681 55.6547 31.703 55.5243C34.0438 55.3945 32.1397 54.1973 32.1397 54.1973V54.1973Z" stroke="white" stroke-width="0.5" stroke-miterlimit="10"/>
<path d="M48.8073 31.1123C48.8073 31.1123 47.9144 33.6083 46.9092 34.9092" stroke="white" stroke-width="0.5" stroke-miterlimit="10"/>
<path d="M50.1708 34.458C50.1708 34.458 50.5321 33.3307 49.3532 33.4515C48.1744 33.573 48.0026 33.7643 47.7598 33.522" stroke="white" stroke-width="0.5" stroke-miterlimit="10"/>
<path d="M48.1034 31.8054C48.1034 31.8054 48.1921 30.9893 47.0811 31.0419C45.9701 31.0945 45.8164 31.1122 45.8164 31.1122C45.8164 31.1122 45.7987 32.3077 47.152 32.2552C47.152 32.2552 47.7784 32.2723 48.1034 31.8054V31.8054Z" stroke="white" stroke-width="0.5" stroke-miterlimit="10"/>
<path d="M47.001 31.4178C47.001 31.6245 47.1722 31.7935 47.379 31.7935C47.5857 31.7935 47.757 31.6245 47.757 31.4178C47.757 31.2087 47.5857 31.0403 47.379 31.0403C47.1722 31.0403 47.001 31.2087 47.001 31.4178Z" fill="white"/>
<path d="M47.001 31.4178C47.001 31.6245 47.1722 31.7935 47.379 31.7935C47.5857 31.7935 47.757 31.6245 47.757 31.4178C47.757 31.2087 47.5857 31.0403 47.379 31.0403C47.1722 31.0403 47.001 31.2087 47.001 31.4178Z" stroke="white" stroke-width="0.5" stroke-miterlimit="10"/>
<path d="M68.4399 44.344C68.4399 44.344 59.4436 45.5115 56.5293 37.8909" stroke="white" stroke-width="0.5" stroke-miterlimit="10"/>
<path d="M73.7025 48.1563C73.7025 48.1563 73.0292 49.6103 54.8008 41.2362" stroke="white" stroke-width="0.5" stroke-miterlimit="10"/>
<path d="M53.6719 43.3464C53.6719 43.3464 66.472 51.6959 74.2346 50.3194" stroke="white" stroke-width="0.5" stroke-miterlimit="10"/>
<path d="M51.2734 43.0674C51.2734 43.0674 54.675 47.3929 60.5011 49.2222C62.6844 49.9091 65.2055 50.2427 68.022 49.8705" stroke="white" stroke-width="0.5" stroke-miterlimit="10"/>
<path d="M52.291 47.0715C52.291 47.0715 58.6397 50.3948 60.2792 49.1502" stroke="white" stroke-width="0.5" stroke-miterlimit="10"/>
<path d="M56.4 37.8677C56.4 37.8677 57.6233 40.0499 56.9192 40.3095C56.221 40.5691 53.0284 39.2354 51.8887 37.3026" stroke="white" stroke-width="0.5" stroke-miterlimit="10"/>
<path d="M50.4541 39.2984C50.4541 39.2984 52.6571 42.3129 54.5147 41.8176C54.5147 41.8176 55.4376 41.1995 53.9967 39.2984" stroke="white" stroke-width="0.5" stroke-miterlimit="10"/>
<path d="M49.9355 41.501C49.9355 41.501 52.0348 44.1064 53.5157 43.7692C53.5157 43.7692 54.3007 43.3654 52.4095 41.2364" stroke="white" stroke-width="0.5" stroke-miterlimit="10"/>
<path d="M48.9883 42.841C48.9883 42.841 50.1516 44.5337 51.2793 44.4073C52.4011 44.2827 50.3475 41.9685 50.3475 41.9685" stroke="white" stroke-width="0.5" stroke-miterlimit="10"/>
<path d="M47.5596 43.2412C47.5596 43.2412 47.8734 45.0952 48.9866 45.1479C50.1057 45.1988 49.4544 43.4082 49.4544 43.4082" stroke="white" stroke-width="0.5" stroke-miterlimit="10"/>
<path d="M52.1169 43.9978C52.1169 43.9978 53.1624 46.7593 52.1169 47.358C51.0715 47.9568 49.9369 44.4593 50.1032 43.9978" stroke="white" stroke-width="0.5" stroke-miterlimit="10"/>
<path d="M48.1074 44.6088C48.1074 44.6088 48.1133 45.0069 48.1963 45.5317C48.3384 46.4079 48.7057 47.6406 49.6476 47.9824C49.6476 47.9824 50.5243 47.5227 50.3051 45.1508" stroke="white" stroke-width="0.5" stroke-miterlimit="10"/>
<path d="M45.7939 48.3989C45.7939 48.3989 47.5787 48.3901 48.2288 45.7112" stroke="white" stroke-width="0.5" stroke-miterlimit="10"/>
<path d="M45.8486 49.2573C45.8486 49.2573 46.1041 51.6235 47.8571 51.2848C49.616 50.9478 51.4878 50.5319 52.29 52.3258C53.0981 54.1198 53.514 54.0675 53.514 54.0675C53.514 54.0675 52.8664 54.5625 52.29 54.3028C51.7195 54.0431 51.666 53.4952 51.666 53.4952C51.666 53.4952 51.4878 55.4211 52.1117 55.4984C52.1117 55.4984 51.6957 55.4983 51.2798 55.0557L51.3332 55.8882L50.8103 55.5245C50.8103 55.5245 51.0956 56.9292 50.8638 56.9815C50.6262 57.0326 50.6262 56.8252 50.6262 56.8252C50.6262 56.8252 50.1507 58.4249 50.739 58.7422" stroke="white" stroke-width="0.5" stroke-miterlimit="10"/>
<path d="M45.7949 50.8601C45.7949 50.8601 48.1171 52.7741 45.7949 54.356" stroke="white" stroke-width="0.5" stroke-miterlimit="10"/>
<path d="M46.7614 52.2733C46.7614 52.2733 50.3323 50.2192 51.8093 52.768C51.8093 52.768 49.6383 51.5888 48.6002 52.491C48.6002 52.491 51.4533 52.3172 51.2813 54.3275C51.1034 56.3389 50.2552 53.5653 49.2231 53.7041C48.1909 53.8429 48.1909 53.8429 48.1909 53.8429C48.1909 53.8429 50.4153 53.9378 50.4568 56.1651C50.4984 58.3949 49.6442 60.4751 49.6442 60.4751C49.6442 60.4751 49.0748 58.9056 49.2231 58.437C49.3714 57.9701 49.1163 59.1482 48.6002 59.3392C48.6002 59.3392 49.0095 56.7203 46.4885 56.6515C43.9616 56.5815 45.8005 55.8703 46.0081 54.1976" stroke="white" stroke-width="0.5" stroke-miterlimit="10"/>
<path d="M39.5029 57.707C39.5029 57.707 40.1113 56.2712 41.2216 56.3397C42.332 56.41 45.1021 56.5801 45.0194 58.072C44.9308 59.5645 47.6714 60.3631 47.2225 61.0216C46.7677 61.6802 45.0194 61.845 45.0194 61.845L44.7241 60.8568C44.7241 60.8568 44.3048 62.4894 43.3893 62.275C42.4679 62.0611 42.397 61.845 42.397 61.845C42.397 61.845 41.706 62.6896 40.8732 62.7049C40.0404 62.7209 39.8337 61.3831 39.8337 61.3831C39.8337 61.3831 40.9086 62.5856 41.8123 61.5095H41.2571C41.2571 61.5095 42.019 60.6584 42.5387 60.4759C43.0585 60.2928 42.0545 57.7495 39.5029 58.3094" stroke="white" stroke-width="0.5" stroke-miterlimit="10"/>
<path d="M46.6554 31.04C46.6554 31.04 46.3603 30.5309 45.3455 30.6607C44.3366 30.7905 42.5666 30.699 41.5518 29.3526" stroke="white" stroke-width="0.5" stroke-miterlimit="10"/>
<path d="M45.8143 31.418C45.8143 31.418 43.7619 32.1428 43.7088 33.7034C43.6557 35.2645 46.2802 32.0426 46.2802 32.0426" stroke="white" stroke-width="0.5" stroke-miterlimit="10"/>
<path d="M47.1162 33.1485C47.1162 33.1485 44.9557 34.9689 44.4717 33.884" stroke="white" stroke-width="0.5" stroke-miterlimit="10"/>
<path d="M44.7003 32.0352C44.7003 32.0352 43.0045 32.5581 41.6797 34.6648C40.3549 36.7716 41.3441 41.1152 41.3441 41.1152" stroke="white" stroke-width="0.5" stroke-miterlimit="10"/>
<path d="M44.6668 34.1295C44.6668 34.1295 45.0614 34.7951 43.7125 36.1994C43.7125 36.1994 43.9423 35.2375 43.2944 35.5762C42.6464 35.9131 41.7865 38.0725 41.7865 38.5148C41.7865 38.9572 41.3682 35.5938 41.7865 34.5053" stroke="white" stroke-width="0.5" stroke-miterlimit="10"/>
<path d="M45.0178 41.1152C45.0178 41.1152 43.292 39.8636 44.3346 36.5752C44.3346 36.5752 43.451 37.9022 43.2684 38.8452C43.0858 39.7894 43.2684 40.3425 43.2684 40.3425C43.2684 40.3425 42.5676 39.0614 42.5676 38.1761C42.5676 37.2932 41.8902 40.2582 42.3849 41.1152" stroke="white" stroke-width="0.5" stroke-miterlimit="10"/>
<path d="M46.8399 54.1979C46.8399 54.1979 48.8354 54.2695 49.4809 55.574C50.1322 56.8767 49.771 58.1475 49.771 58.1475C49.771 58.1475 49.6111 55.6546 47.2722 55.5249C44.9333 55.3952 46.8399 54.1979 46.8399 54.1979Z" stroke="white" stroke-width="0.5" stroke-miterlimit="10"/>
<path d="M50.8369 58.5431C50.8369 58.5431 51.4192 60.7619 52.5778 60.8567C53.7424 60.9516 55.3272 60.9215 56.2817 61.5098C57.2422 62.0964 58.1427 62.8281 58.4909 62.7051C58.8391 62.5826 59.4633 61.9084 59.4633 61.9084C59.4633 61.9084 60.4359 62.1366 60.8861 61.9084C61.3363 61.6803 61.5225 61.1605 62.483 61.0902C63.4495 61.0218 62.7891 59.3331 62.0267 59.6399C61.2643 59.9472 61.5405 60.4755 61.5405 60.4755C61.5405 60.4755 61.0242 60.8285 60.8861 60.6304" stroke="white" stroke-width="0.5" stroke-miterlimit="10"/>
<path d="M57.9023 61.1594C57.9023 61.1594 58.8729 61.3847 59.2204 60.8563C59.5679 60.3278 59.3223 59.5993 60.2809 59.3393C61.2335 59.0793 61.5091 60.9365 60.5745 60.8581C59.6339 60.779 59.4661 61.9077 59.4661 61.9077" stroke="white" stroke-width="0.5" stroke-miterlimit="10"/>
<path d="M57.6611 60.6101L59.3349 60.6299" stroke="white" stroke-width="0.5" stroke-miterlimit="10"/>
<path d="M52.6768 55.9779C52.6768 55.9779 53.7746 58.1813 54.0848 58.6658C54.4011 59.1485 56.5252 59.6783 56.901 59.6401C57.2769 59.5996 57.4858 59.315 57.4858 59.315" stroke="white" stroke-width="0.5" stroke-miterlimit="10"/>
<path d="M62.7361 59.9083C62.7361 59.9083 65.4611 56.0969 60.9555 54.3277V53.9096L61.8218 53.9993L61.7857 52.4557L60.9555 52.635L61.148 51.6923H59.5239L59.8066 52.635L58.9103 52.4557V53.9993L59.6502 53.9096V54.3554C59.6502 54.3554 56.1312 55.3684 57.4847 59.1485C57.4847 59.1485 58.008 60.3931 58.9584 60.6211" stroke="white" stroke-width="0.5" stroke-miterlimit="10"/>
<path d="M57.334 58.6654C57.334 58.6654 60.3291 57.4932 63.3122 58.7549" stroke="white" stroke-width="0.5" stroke-miterlimit="10"/>
<path d="M57.1982 57.1626C57.1982 57.1626 59.9839 55.3843 63.5381 57.1626" stroke="white" stroke-width="0.5" stroke-miterlimit="10"/>
<path d="M59.6484 54.3555L60.9538 54.3273" stroke="white" stroke-width="0.5" stroke-miterlimit="10"/>
<path d="M59.5264 56.3379V54.424" stroke="white" stroke-width="0.5" stroke-miterlimit="10"/>
<path d="M61.1514 56.4233V54.408" stroke="white" stroke-width="0.5" stroke-miterlimit="10"/>
<path d="M38.9496 50.9198V48.5621L37.4272 47.8691V46.9422L38.9496 47.6246V45.5973H36.04V44.4946H38.9496V43.4642H37.8093L37.8152 42.5107H39.0966V41.3399H39.9665L40.0018 42.5372L41.2303 42.546V43.4113L39.9665 43.4201L39.9841 44.6351L43.0113 44.6439L43.0524 45.5973H40.0018V48.1283L41.5242 48.8819L41.5006 49.8018L39.9724 49.0817L39.99 50.9639H38.9496V50.9198Z" stroke="white" stroke-width="0.5" stroke-miterlimit="10"/>
<path d="M39.5449 52.5925C41.3087 52.5925 42.7786 53.7249 43.1725 55.2471C43.2372 54.9872 43.2783 54.7168 43.2783 54.4381C43.2783 52.5243 41.6086 50.9728 39.5449 50.9728C37.4871 50.9728 35.8174 52.5243 35.8174 54.4381C35.8174 54.7168 35.8586 54.9872 35.9233 55.2471C36.3172 53.7249 37.787 52.5925 39.5449 52.5925Z" stroke="white" stroke-width="0.5" stroke-miterlimit="10"/>
<path d="M39.9472 18.3455C39.9472 18.6683 39.6835 18.9302 39.3613 18.9302C39.039 18.9302 38.7754 18.6683 38.7754 18.3455C38.7754 18.0226 39.039 17.7607 39.3613 17.7607C39.6835 17.7607 39.9472 18.0226 39.9472 18.3455Z" stroke="white" stroke-width="0.5" stroke-miterlimit="10"/>
<path d="M39.7126 19.3062C39.7126 19.5147 39.5428 19.6816 39.3377 19.6816C39.1269 19.6816 38.9629 19.5147 38.9629 19.3062C38.9629 19.0988 39.1269 18.9301 39.3377 18.9301C39.5428 18.9301 39.7126 19.0988 39.7126 19.3062Z" stroke="white" stroke-width="0.5" stroke-miterlimit="10"/>
<path d="M39.7126 20.0591C39.7126 20.2659 39.5428 20.4346 39.3377 20.4346C39.1269 20.4346 38.9629 20.2659 38.9629 20.0591C38.9629 19.85 39.1269 19.6813 39.3377 19.6813C39.5428 19.6813 39.7126 19.85 39.7126 20.0591Z" stroke="white" stroke-width="0.5" stroke-miterlimit="10"/>
<path d="M39.7126 20.8105C39.7126 21.0178 39.5428 21.1865 39.3377 21.1865C39.1269 21.1865 38.9629 21.0178 38.9629 20.8105C38.9629 20.6037 39.1269 20.435 39.3377 20.435C39.5428 20.435 39.7126 20.6037 39.7126 20.8105Z" stroke="white" stroke-width="0.5" stroke-miterlimit="10"/>
<path d="M39.7126 21.562C39.7126 21.7694 39.5428 21.9375 39.3377 21.9375C39.1269 21.9375 38.9629 21.7694 38.9629 21.562C38.9629 21.3547 39.1269 21.1866 39.3377 21.1866C39.5428 21.1866 39.7126 21.3547 39.7126 21.562Z" stroke="white" stroke-width="0.5" stroke-miterlimit="10"/>
<path d="M40.0166 22.775C40.0166 23.2367 39.7295 23.6123 39.3721 23.6123C39.0205 23.6123 38.7334 23.2367 38.7334 22.775C38.7334 22.3133 39.0205 21.9377 39.3721 21.9377C39.7295 21.9377 40.0166 22.3133 40.0166 22.775Z" stroke="white" stroke-width="0.5" stroke-miterlimit="10"/>
<path d="M39.7527 23.9883C39.7527 24.1951 39.5828 24.3638 39.3778 24.3638C39.1669 24.3638 38.9971 24.1951 38.9971 23.9883C38.9971 23.7809 39.1669 23.6122 39.3778 23.6122C39.5828 23.6122 39.7527 23.7809 39.7527 23.9883Z" stroke="white" stroke-width="0.5" stroke-miterlimit="10"/>
<path d="M43.0062 24.0574C43.0062 24.2649 42.8357 24.4336 42.63 24.4336C42.4243 24.4336 42.2539 24.2649 42.2539 24.0574C42.2539 23.8488 42.4243 23.6818 42.63 23.6818C42.8357 23.6818 43.0062 23.8488 43.0062 24.0574Z" stroke="white" stroke-width="0.5" stroke-miterlimit="10"/>
<path d="M36.4904 24.1406C36.4904 24.3479 36.3211 24.5166 36.1168 24.5166C35.9066 24.5166 35.7373 24.3479 35.7373 24.1406C35.7373 23.9334 35.9066 23.7647 36.1168 23.7647C36.3211 23.7647 36.4904 23.9334 36.4904 24.1406Z" stroke="white" stroke-width="0.5" stroke-miterlimit="10"/>
<path d="M43.3361 23.2472C43.2538 23.5595 42.9892 23.76 42.754 23.6947C42.5129 23.6318 42.3894 23.3278 42.4717 23.0173C42.5541 22.7062 42.8186 22.5045 43.0538 22.5692C43.2949 22.6327 43.4184 22.9361 43.3361 23.2472V23.2472Z" stroke="white" stroke-width="0.5" stroke-miterlimit="10"/>
<path d="M36.3521 23.0963C36.4163 23.4121 36.2704 23.7074 36.031 23.7582C35.7917 23.809 35.5407 23.593 35.4765 23.279C35.4123 22.9626 35.5524 22.6661 35.7917 22.617C36.0368 22.5663 36.282 22.7805 36.3521 23.0963Z" stroke="white" stroke-width="0.5" stroke-miterlimit="10"/>
<path d="M40.2964 26.244C40.2964 26.7217 39.9096 27.1079 39.4348 27.1079C38.9542 27.1079 38.5674 26.7217 38.5674 26.244C38.5674 25.7681 38.9542 25.3801 39.4348 25.3801C39.9096 25.3801 40.2964 25.7681 40.2964 26.244Z" stroke="white" stroke-width="0.5" stroke-miterlimit="10"/>
<path d="M42.798 26.5473C42.798 27.0251 42.4101 27.4111 41.9342 27.4111C41.4582 27.4111 41.0703 27.0251 41.0703 26.5473C41.0703 26.0713 41.4582 25.6852 41.9342 25.6852C42.4101 25.6852 42.798 26.0713 42.798 26.5473Z" stroke="white" stroke-width="0.5" stroke-miterlimit="10"/>
<path d="M37.5522 26.6055C37.5522 27.0829 37.1665 27.4692 36.6872 27.4692C36.2139 27.4692 35.8281 27.0829 35.8281 26.6055C35.8281 26.1297 36.2139 25.7434 36.6872 25.7434C37.1665 25.7434 37.5522 26.1297 37.5522 26.6055Z" stroke="white" stroke-width="0.5" stroke-miterlimit="10"/>
<path d="M39.3389 19.6811C44.0692 18.6318 45.4966 20.7257 45.9212 22.6591C46.3459 24.592 43.3909 28.5278 43.3909 28.5278H35.2986C35.2986 28.5278 32.5618 25.0851 32.8391 23.187C33.1163 21.2878 34.4493 18.3664 39.2504 19.6935L39.3389 19.6811Z" stroke="white" stroke-width="0.5" stroke-miterlimit="10"/>
<path d="M35.9703 24.4886L35.8828 26.3037" stroke="white" stroke-width="0.5" stroke-miterlimit="10"/>
<path d="M36.4141 24.3635L37.2203 25.9263" stroke="white" stroke-width="0.5" stroke-miterlimit="10"/>
<path d="M42.3223 24.2778L41.4883 25.8066" stroke="white" stroke-width="0.5" stroke-miterlimit="10"/>
<path d="M42.7607 24.4091V26.2983" stroke="white" stroke-width="0.5" stroke-miterlimit="10"/>
<path d="M38.6865 25.8066L39.1666 24.301" stroke="white" stroke-width="0.5" stroke-miterlimit="10"/>
<path d="M39.6143 24.2777L40.1768 25.8066" stroke="white" stroke-width="0.5" stroke-miterlimit="10"/>
<path d="M40.4765 24.2124C40.0775 24.2124 39.7549 24.0123 39.7549 23.7648C39.7549 23.519 40.0775 23.3189 40.4765 23.3189C40.8813 23.3189 41.2039 23.519 41.2039 23.7648C41.2039 24.0123 40.8813 24.2124 40.4765 24.2124Z" stroke="white" stroke-width="0.5" stroke-miterlimit="10"/>
<path d="M38.3176 24.2129C37.9137 24.2129 37.5918 24.0127 37.5918 23.7651C37.5918 23.5193 37.9137 23.3191 38.3176 23.3191C38.7215 23.3191 39.0434 23.5193 39.0434 23.7651C39.0434 24.0127 38.7215 24.2129 38.3176 24.2129Z" stroke="white" stroke-width="0.5" stroke-miterlimit="10"/>
<path d="M41.6476 24.3831C41.3598 24.3214 41.1719 24.077 41.2247 23.8351C41.2776 23.5943 41.5478 23.4486 41.8356 23.5085C42.1175 23.5702 42.3054 23.8157 42.2526 24.0565C42.2056 24.2985 41.9295 24.4441 41.6476 24.3831Z" stroke="white" stroke-width="0.5" stroke-miterlimit="10"/>
<path d="M37.0296 24.3899C36.7432 24.4232 36.486 24.2531 36.4568 24.0071C36.4276 23.7628 36.638 23.5366 36.9302 23.5033C37.2166 23.4683 37.4737 23.6401 37.5029 23.8861C37.5321 24.1298 37.3218 24.3566 37.0296 24.3899Z" stroke="white" stroke-width="0.5" stroke-miterlimit="10"/>
<path d="M43.4375 24.6479C43.1492 24.5885 42.9608 24.3425 43.0138 24.1019C43.0668 23.86 43.3375 23.7141 43.6258 23.7753C43.9083 23.8353 44.0965 24.0813 44.0436 24.3213C43.9965 24.5638 43.7199 24.7097 43.4375 24.6479Z" stroke="white" stroke-width="0.5" stroke-miterlimit="10"/>
<path d="M35.3464 24.7269C35.0722 24.815 34.7864 24.6954 34.7105 24.4586C34.6347 24.2229 34.8039 23.9616 35.078 23.8752C35.358 23.7877 35.6439 23.9073 35.7139 24.1424C35.7897 24.3775 35.6264 24.6394 35.3464 24.7269Z" stroke="white" stroke-width="0.5" stroke-miterlimit="10"/>
<path d="M34.2319 25.2434C33.8881 25.4433 33.5034 25.4328 33.3811 25.2201C33.2587 25.0062 33.4394 24.6688 33.7832 24.469C34.1328 24.2691 34.5174 24.2796 34.6398 24.4934C34.7621 24.7061 34.5815 25.043 34.2319 25.2434Z" stroke="white" stroke-width="0.5" stroke-miterlimit="10"/>
<path d="M33.835 25.3801L35.1057 26.5215" stroke="white" stroke-width="0.5" stroke-miterlimit="10"/>
<path d="M35.9258 19.4746L36.9771 23.5" stroke="white" stroke-width="0.5" stroke-miterlimit="10"/>
<path d="M37.0615 19.3583L37.7981 23.4526" stroke="white" stroke-width="0.5" stroke-miterlimit="10"/>
<path d="M41.7935 19.4027L40.9541 23.4297" stroke="white" stroke-width="0.5" stroke-miterlimit="10"/>
<path d="M42.7977 19.5022L41.834 23.5088" stroke="white" stroke-width="0.5" stroke-miterlimit="10"/>
<path d="M44.4792 25.1886C44.108 25.0271 43.89 24.713 43.9902 24.4862C44.0903 24.2617 44.4733 24.2092 44.8386 24.3724C45.204 24.5357 45.422 24.8497 45.3218 25.0742C45.2217 25.3011 44.8446 25.3518 44.4792 25.1886V25.1886Z" stroke="white" stroke-width="0.5" stroke-miterlimit="10"/>
<path d="M44.9869 25.2782L43.7559 26.4897" stroke="white" stroke-width="0.5" stroke-miterlimit="10"/>
<path d="M34.3408 27.1987C34.3408 27.1987 35.0468 26.2962 35.9102 26.2034" stroke="white" stroke-width="0.5" stroke-miterlimit="10"/>
<path d="M44.3346 27.1074C44.3346 27.1074 43.9226 26.2575 42.6689 26.1227" stroke="white" stroke-width="0.5" stroke-miterlimit="10"/>
<path d="M40.002 25.6104C40.002 25.6104 40.9643 25.4191 41.3926 25.8633" stroke="white" stroke-width="0.5" stroke-miterlimit="10"/>
<path d="M38.8806 25.5696C38.8806 25.5696 37.833 25.3747 37.002 25.8066" stroke="white" stroke-width="0.5" stroke-miterlimit="10"/>
<path d="M39.433 27.1078C36.751 26.9357 35.2988 28.5278 35.2988 28.5278" stroke="white" stroke-width="0.5" stroke-miterlimit="10"/>
<path d="M43.3899 28.5278C43.3899 28.5278 41.9787 26.9567 39.4326 27.1078" stroke="white" stroke-width="0.5" stroke-miterlimit="10"/>
<path d="M40.2964 16.4336H39.7162V15.5368H38.9601V16.4336H38.4502V17.1885H38.9601V17.8789H39.7162V17.1885H40.2964V16.4336Z" stroke="white" stroke-width="0.5" stroke-miterlimit="10"/>
</svg>
